999
dxflib 3.12.2.0
  0
SECTION
  2
HEADER
  9
$ACADVER
  1
AC1015
  9
$HANDSEED
  5
FFFF
  9
$ANGBASE
 50
0.0
  9
$ATTMODE
 70
1
  9
$AUNITS
 70
0
  9
$AUPREC
 70
0
  9
$CELTSCALE
 40
1.0
  9
$CHAMFERA
 40
0.0
  9
$CHAMFERB
 40
0.0
  9
$CHAMFERC
 40
0.0
  9
$CHAMFERD
 40
0.0
  9
$CMLJUST
 70
0
  9
$CMLSCALE
 40
1.0
  9
$DIMADEC
 70
0
  9
$DIMALTD
 70
2
  9
$DIMALTF
 40
25.3999999999999986
  9
$DIMALTRND
 40
0.0
  9
$DIMALTTD
 70
2
  9
$DIMALTTZ
 70
0
  9
$DIMALTU
 70
2
  9
$DIMALTZ
 70
0
  9
$DIMAPOST
  1

  9
$DIMASZ
 40
2.5
  9
$DIMATFIT
 70
3
  9
$DIMAUNIT
 70
0
  9
$DIMAZIN
 70
2
  9
$DIMCEN
 40
0.09
  9
$DIMDEC
 70
4
  9
$DIMDLE
 40
0.0
  9
$DIMDLI
 40
0.38
  9
$DIMDSEP
 70
46
  9
$DIMEXE
 40
1.25
  9
$DIMEXO
 40
0.625
  9
$DIMFRAC
 70
0
  9
$DIMGAP
 40
0.625
  9
$DIMJUST
 70
0
  9
$DIMLFAC
 40
1.0
  9
$DIMLUNIT
 70
2
  9
$DIMLWD
 70
-2
  9
$DIMLWE
 70
-2
  9
$DIMPOST
  1

  9
$DIMRND
 40
0.0
  9
$DIMSCALE
 40
1.0
  9
$DIMTAD
 70
0
  9
$DIMTDEC
 70
4
  9
$DIMTFAC
 40
1.0
  9
$DIMTM
 40
0.0
  9
$DIMTOLJ
 70
1
  9
$DIMTP
 40
0.0
  9
$DIMTSZ
 40
0.0
  9
$DIMTVP
 40
0.0
  9
$DIMTXT
 40
2.5
  9
$DIMTZIN
 70
0
  9
$DIMZIN
 70
8
  9
$DWGCODEPAGE
  3
ANSI_1252
  9
$ELEVATION
 40
0.0
  9
$EXTMAX
 10
-100000000000000000000.0
 20
-100000000000000000000.0
 30
-100000000000000000000.0
  9
$EXTMIN
 10
100000000000000000000.0
 20
100000000000000000000.0
 30
100000000000000000000.0
  9
$FILLETRAD
 40
0.5
  9
$INSBASE
 10
0.0
 20
0.0
 30
0.0
  9
$INSUNITS
 70
4
  9
$LIMMAX
 10
12.0
 20
9.0
  9
$LIMMIN
 10
0.0
 20
0.0
  9
$LTSCALE
 40
1.0
  9
$LUNITS
 70
2
  9
$LUPREC
 70
4
  9
$MAXACTVP
 70
32
  9
$MEASUREMENT
 70
1
  9
$PDMODE
 70
0
  9
$PDSIZE
 40
0.0
  9
$PELEVATION
 40
0.0
  9
$PEXTMAX
 10
0.0
 20
0.0
 30
0.0
  9
$PEXTMIN
 10
0.0
 20
0.0
 30
0.0
  9
$PINSBASE
 10
0.0
 20
0.0
 30
0.0
  9
$PLIMMAX
 10
277.0
 20
202.5
  9
$PLIMMIN
 10
-20.0
 20
-7.5
  9
$PLINEWID
 40
0.0
  9
$PROXYGRAPHICS
 70
1
  9
$PUCSORG
 10
0.0
 20
0.0
 30
0.0
  9
$PUCSXDIR
 10
1.0
 20
0.0
 30
0.0
  9
$PUCSYDIR
 10
0.0
 20
1.0
 30
0.0
  9
$SHADEDGE
 70
3
  9
$SHADEDIF
 70
70
  9
$SKETCHINC
 40
0.1
  9
$SPLINESEGS
 70
8
  9
$SPLINETYPE
 70
6
  9
$SURFTAB1
 70
6
  9
$SURFTAB2
 70
6
  9
$SURFTYPE
 70
6
  9
$SURFU
 70
6
  9
$SURFV
 70
6
  9
$TEXTSIZE
 40
0.2
  9
$THICKNESS
 40
0.0
  9
$TRACEWID
 40
0.05
  9
$TREEDEPTH
 70
3020
  9
$UCSORG
 10
0.0
 20
0.0
 30
0.0
  9
$UCSXDIR
 10
1.0
 20
0.0
 30
0.0
  9
$UCSYDIR
 10
0.0
 20
1.0
 30
0.0
  9
$UNITMODE
 70
0
  9
$USERI1
 70
0
  9
$USERI2
 70
0
  9
$USERI3
 70
0
  9
$USERI4
 70
0
  9
$USERI5
 70
0
  9
$USERR1
 40
0.0
  9
$USERR2
 40
0.0
  9
$USERR3
 40
0.0
  9
$USERR4
 40
0.0
  9
$USERR5
 40
0.0
  0
ENDSEC
  0
SECTION
  2
TABLES
  0
TABLE
  2
VPORT
  5
8
100
AcDbSymbolTable
 70
1
  0
VPORT
  5
30
100
AcDbSymbolTableRecord
100
AcDbViewportTableRecord
  2
*Active
 70
0
 10
0.0
 20
0.0
 11
1.0
 21
1.0
 12
286.3055555555554861
 22
148.5
 13
0.0
 23
0.0
 14
10.0
 24
10.0
 15
10.0
 25
10.0
 16
0.0
 26
0.0
 36
1.0
 17
0.0
 27
0.0
 37
0.0
 40
297.0
 41
1.92798353909465
 42
50.0
 43
0.0
 44
0.0
 50
0.0
 51
0.0
 71
0
 72
100
 73
1
 74
3
 75
1
 76
1
 77
0
 78
0
281
0
 65
1
110
0.0
120
0.0
130
0.0
111
1.0
121
0.0
131
0.0
112
0.0
122
1.0
132
0.0
 79
0
146
0.0
  0
ENDTAB
  0
TABLE
  2
LTYPE
  5
5
100
AcDbSymbolTable
 70
50
  0
LTYPE
  5
16
100
AcDbSymbolTableRecord
100
AcDbLinetypeTableRecord
  2
Continuous
 70
0
  3
Solid line
 72
65
 73
0
 40
0.0
  0
LTYPE
  5
31
100
AcDbSymbolTableRecord
100
AcDbLinetypeTableRecord
  2
ACAD_ISO10W100
 70
0
  3
ISO dash dot __ . __ . __ . __ . __ . __ . __ . 
 72
65
 73
4
 40
18.0
 49
12.0
 74
0
 49
-3.0
 74
0
 49
0.0
 74
0
 49
-3.0
 74
0
  0
LTYPE
  5
14
100
AcDbSymbolTableRecord
100
AcDbLinetypeTableRecord
  2
ByBlock
 70
0
  3

 72
65
 73
0
 40
0.0
  0
LTYPE
  5
32
100
AcDbSymbolTableRecord
100
AcDbLinetypeTableRecord
  2
FENCELINE2
 70
0
  3
Fenceline square ----[]-----[]----[]-----[]----[]---
 72
65
 73
4
 40
36.8299999999999983
 49
6.3499999999999996
 74
0
 49
-2.54
 74
0
 49
-2.54
 74
0
 49
25.3999999999999986
 74
0
  0
LTYPE
  5
15
100
AcDbSymbolTableRecord
100
AcDbLinetypeTableRecord
  2
ByLayer
 70
0
  3

 72
65
 73
0
 40
0.0
  0
LTYPE
  5
33
100
AcDbSymbolTableRecord
100
AcDbLinetypeTableRecord
  2
ACAD_ISO11W100
 70
0
  3
ISO double-dash dot __ __ . __ __ . __ __ . __ _
 72
65
 73
6
 40
33.0
 49
12.0
 74
0
 49
-3.0
 74
0
 49
12.0
 74
0
 49
-3.0
 74
0
 49
0.0
 74
0
 49
-3.0
 74
0
  0
LTYPE
  5
34
100
AcDbSymbolTableRecord
100
AcDbLinetypeTableRecord
  2
DIVIDEX2
 70
0
  3
Divide (2x) ________  .  .  ________  .  .  _
 72
65
 73
6
 40
63.5
 49
25.3999999999999986
 74
0
 49
-12.6999999999999993
 74
0
 49
0.0
 74
0
 49
-12.6999999999999993
 74
0
 49
0.0
 74
0
 49
-12.6999999999999993
 74
0
  0
LTYPE
  5
35
100
AcDbSymbolTableRecord
100
AcDbLinetypeTableRecord
  2
DRAINAGE
 70
0
  3
Drainage ---->---->---->----
 72
65
 73
2
 40
10.1600000000000001
 49
5.0800000000000001
 74
0
 49
5.0800000000000001
 74
0
  0
LTYPE
  5
36
100
AcDbSymbolTableRecord
100
AcDbLinetypeTableRecord
  2
PHANTOMX2
 70
0
  3
Phantom (2x) ____________    ____    ____   _
 72
65
 73
6
 40
127.0000000000000142
 49
63.5
 74
0
 49
-12.6999999999999993
 74
0
 49
12.6999999999999993
 74
0
 49
-12.6999999999999993
 74
0
 49
12.6999999999999993
 74
0
 49
-12.6999999999999993
 74
0
  0
LTYPE
  5
37
100
AcDbSymbolTableRecord
100
AcDbLinetypeTableRecord
  2
DASHED
 70
0
  3
Dashed __ __ __ __ __ __ __ __ __ __ __ __ __ _
 72
65
 73
2
 40
19.0499999999999972
 49
12.6999999999999993
 74
0
 49
-6.3499999999999996
 74
0
  0
LTYPE
  5
38
100
AcDbSymbolTableRecord
100
AcDbLinetypeTableRecord
  2
BORDER2
 70
0
  3
Border (.5x) __.__.__.__.__.__.__.__.__.__.__.
 72
65
 73
6
 40
22.2249999999999979
 49
6.3499999999999996
 74
0
 49
-3.1749999999999998
 74
0
 49
6.3499999999999996
 74
0
 49
-3.1749999999999998
 74
0
 49
0.0
 74
0
 49
-3.1749999999999998
 74
0
  0
LTYPE
  5
39
100
AcDbSymbolTableRecord
100
AcDbLinetypeTableRecord
  2
DASHDOTX2
 70
0
  3
Dash dot (2x) ____  .  ____  .  ____  .  ___
 72
65
 73
4
 40
50.7999999999999972
 49
25.3999999999999986
 74
0
 49
-12.6999999999999993
 74
0
 49
0.0
 74
0
 49
-12.6999999999999993
 74
0
  0
LTYPE
  5
3A
100
AcDbSymbolTableRecord
100
AcDbLinetypeTableRecord
  2
FENCELINE1
 70
0
  3
Fenceline circle ----0-----0----0-----0----0-----0--
 72
65
 73
4
 40
36.8299999999999983
 49
6.3499999999999996
 74
0
 49
-2.54
 74
0
 49
-2.54
 74
0
 49
25.3999999999999986
 74
0
  0
LTYPE
  5
3B
100
AcDbSymbolTableRecord
100
AcDbLinetypeTableRecord
  2
DRAINAGE2
 70
0
  3
Drainage reversed----<----<----<----
 72
65
 73
2
 40
10.1600000000000001
 49
5.0800000000000001
 74
0
 49
5.0800000000000001
 74
0
  0
LTYPE
  5
3C
100
AcDbSymbolTableRecord
100
AcDbLinetypeTableRecord
  2
DASHED2
 70
0
  3
Dashed (.5x) _ _ _ _ _ _ _ _ _ _ _ _ _ _ _ _ _ 
 72
65
 73
2
 40
9.5249999999999986
 49
6.3499999999999996
 74
0
 49
-3.1749999999999998
 74
0
  0
LTYPE
  5
3D
100
AcDbSymbolTableRecord
100
AcDbLinetypeTableRecord
  2
CENTER
 70
0
  3
Center ____ _ ____ _ ____ _ ____ _ ____ _ ____
 72
65
 73
4
 40
50.8000000000000043
 49
31.75
 74
0
 49
-6.3499999999999996
 74
0
 49
6.3499999999999996
 74
0
 49
-6.3499999999999996
 74
0
  0
LTYPE
  5
3E
100
AcDbSymbolTableRecord
100
AcDbLinetypeTableRecord
  2
ACAD_ISO06W100
 70
0
  3
ISO long-dash triple-dot ____ ... ____ ... ____
 72
65
 73
8
 40
36.0
 49
24.0
 74
0
 49
-3.0
 74
0
 49
0.0
 74
0
 49
-3.0
 74
0
 49
0.0
 74
0
 49
-3.0
 74
0
 49
0.0
 74
0
 49
-3.0
 74
0
  0
LTYPE
  5
3F
100
AcDbSymbolTableRecord
100
AcDbLinetypeTableRecord
  2
PHANTOM
 70
0
  3
Phantom ______  __  __  ______  __  __  ______ 
 72
65
 73
6
 40
63.5000000000000071
 49
31.75
 74
0
 49
-6.3499999999999996
 74
0
 49
6.3499999999999996
 74
0
 49
-6.3499999999999996
 74
0
 49
6.3499999999999996
 74
0
 49
-6.3499999999999996
 74
0
  0
LTYPE
  5
40
100
AcDbSymbolTableRecord
100
AcDbLinetypeTableRecord
  2
HIDDEN2
 70
0
  3
Hidden (.5x) _ _ _ _ _ _ _ _ _ _ _ _ _ _ _ _ _ 
 72
65
 73
2
 40
4.7624999999999993
 49
3.1749999999999998
 74
0
 49
-1.5874999999999999
 74
0
  0
LTYPE
  5
41
100
AcDbSymbolTableRecord
100
AcDbLinetypeTableRecord
  2
BATTING
 70
0
  3
Batting SSSSSSSSSSSSSSSSSSSSSSSSSSSSSSSSSSSSSSSSSSSSSSS
 72
65
 73
4
 40
10.1625399999999999
 49
0.00254
 74
0
 49
-2.54
 74
0
 49
-5.0800000000000001
 74
0
 49
-2.54
 74
0
  0
LTYPE
  5
42
100
AcDbSymbolTableRecord
100
AcDbLinetypeTableRecord
  2
ACAD_ISO08W100
 70
0
  3
ISO long-dash short-dash ____ __ ____ __ ____ _
 72
65
 73
4
 40
36.0
 49
24.0
 74
0
 49
-3.0
 74
0
 49
6.0
 74
0
 49
-3.0
 74
0
  0
LTYPE
  5
43
100
AcDbSymbolTableRecord
100
AcDbLinetypeTableRecord
  2
ACAD_ISO13W100
 70
0
  3
ISO double-dash double-dot __ __ . . __ __ . . _
 72
65
 73
8
 40
36.0
 49
12.0
 74
0
 49
-3.0
 74
0
 49
12.0
 74
0
 49
-3.0
 74
0
 49
0.0
 74
0
 49
-3.0
 74
0
 49
0.0
 74
0
 49
-3.0
 74
0
  0
LTYPE
  5
44
100
AcDbSymbolTableRecord
100
AcDbLinetypeTableRecord
  2
HIDDENX2
 70
0
  3
Hidden (2x) ____ ____ ____ ____ ____ ____ ____ 
 72
65
 73
2
 40
19.0499999999999972
 49
12.6999999999999993
 74
0
 49
-6.3499999999999996
 74
0
  0
LTYPE
  5
45
100
AcDbSymbolTableRecord
100
AcDbLinetypeTableRecord
  2
CENTER2
 70
0
  3
Center (.5x) ___ _ ___ _ ___ _ ___ _ ___ _ ___
 72
65
 73
4
 40
28.5750000000000028
 49
19.0500000000000007
 74
0
 49
-3.1749999999999998
 74
0
 49
3.1749999999999998
 74
0
 49
-3.1749999999999998
 74
0
  0
LTYPE
  5
46
100
AcDbSymbolTableRecord
100
AcDbLinetypeTableRecord
  2
HIDDEN
 70
0
  3
Hidden __ __ __ __ __ __ __ __ __ __ __ __ __ __
 72
65
 73
2
 40
9.5249999999999986
 49
6.3499999999999996
 74
0
 49
-3.1749999999999998
 74
0
  0
LTYPE
  5
47
100
AcDbSymbolTableRecord
100
AcDbLinetypeTableRecord
  2
ACAD_ISO02W100
 70
0
  3
ISO dash __ __ __ __ __ __ __ __ __ __ __ __ __
 72
65
 73
2
 40
15.0
 49
12.0
 74
0
 49
-3.0
 74
0
  0
LTYPE
  5
48
100
AcDbSymbolTableRecord
100
AcDbLinetypeTableRecord
  2
DASHDOT
 70
0
  3
Dash dot __ . __ . __ . __ . __ . __ . __ . __
 72
65
 73
4
 40
25.3999999999999986
 49
12.6999999999999993
 74
0
 49
-6.3499999999999996
 74
0
 49
0.0
 74
0
 49
-6.3499999999999996
 74
0
  0
LTYPE
  5
49
100
AcDbSymbolTableRecord
100
AcDbLinetypeTableRecord
  2
BORDER
 70
0
  3
Border __ __ . __ __ . __ __ . __ __ . __ __ .
 72
65
 73
6
 40
44.4499999999999957
 49
12.6999999999999993
 74
0
 49
-6.3499999999999996
 74
0
 49
12.6999999999999993
 74
0
 49
-6.3499999999999996
 74
0
 49
0.0
 74
0
 49
-6.3499999999999996
 74
0
  0
LTYPE
  5
4A
100
AcDbSymbolTableRecord
100
AcDbLinetypeTableRecord
  2
ZIGZAG
 70
0
  3
Zig zag /\/\/\/\/\/\/\/\/\/\/\/\/\/\/\/\/\/\/\/\/\/\/\/
 72
65
 73
4
 40
20.32254
 49
0.00254
 74
0
 49
-5.0800000000000001
 74
0
 49
-10.1600000000000001
 74
0
 49
-5.0800000000000001
 74
0
  0
LTYPE
  5
4B
100
AcDbSymbolTableRecord
100
AcDbLinetypeTableRecord
  2
ACAD_ISO07W100
 70
0
  3
ISO dot . . . . . . . . . . . . . . . . . . . . 
 72
65
 73
2
 40
3.0
 49
0.0
 74
0
 49
-3.0
 74
0
  0
LTYPE
  5
4C
100
AcDbSymbolTableRecord
100
AcDbLinetypeTableRecord
  2
BORDERX2
 70
0
  3
Border (2x) ____  ____  .  ____  ____  .  ___
 72
65
 73
6
 40
88.8999999999999915
 49
25.3999999999999986
 74
0
 49
-12.6999999999999993
 74
0
 49
25.3999999999999986
 74
0
 49
-12.6999999999999993
 74
0
 49
0.0
 74
0
 49
-12.6999999999999993
 74
0
  0
LTYPE
  5
4D
100
AcDbSymbolTableRecord
100
AcDbLinetypeTableRecord
  2
DOT2
 70
0
  3
Dot (.5x) ........................................
 72
65
 73
2
 40
3.1749999999999998
 49
0.0
 74
0
 49
-3.1749999999999998
 74
0
  0
LTYPE
  5
4E
100
AcDbSymbolTableRecord
100
AcDbLinetypeTableRecord
  2
ACAD_ISO09W100
 70
0
  3
ISO long-dash double-short-dash ____ __ __ ____
 72
65
 73
6
 40
45.0
 49
24.0
 74
0
 49
-3.0
 74
0
 49
6.0
 74
0
 49
-3.0
 74
0
 49
6.0
 74
0
 49
-3.0
 74
0
  0
LTYPE
  5
4F
100
AcDbSymbolTableRecord
100
AcDbLinetypeTableRecord
  2
GAS_LINE
 70
0
  3
Gas line ----GAS----GAS----GAS----GAS----GAS----GAS--
 72
65
 73
3
 40
24.1300000000000026
 49
12.6999999999999993
 74
0
 49
-5.0800000000000001
 74
0
 49
-6.3499999999999996
 74
0
  0
LTYPE
  5
50
100
AcDbSymbolTableRecord
100
AcDbLinetypeTableRecord
  2
HOT_WATER_SUPPLY
 70
0
  3
Hot water supply ---- HW ---- HW ---- HW ----
 72
65
 73
3
 40
22.8599999999999994
 49
12.6999999999999993
 74
0
 49
-5.0800000000000001
 74
0
 49
-5.0800000000000001
 74
0
  0
LTYPE
  5
51
100
AcDbSymbolTableRecord
100
AcDbLinetypeTableRecord
  2
ACAD_ISO05W100
 70
0
  3
ISO long-dash double-dot ____ .. ____ .. ____ . 
 72
65
 73
6
 40
33.0
 49
24.0
 74
0
 49
-3.0
 74
0
 49
0.0
 74
0
 49
-3.0
 74
0
 49
0.0
 74
0
 49
-3.0
 74
0
  0
LTYPE
  5
52
100
AcDbSymbolTableRecord
100
AcDbLinetypeTableRecord
  2
DIVIDE
 70
0
  3
Divide ____ . . ____ . . ____ . . ____ . . ____
 72
65
 73
6
 40
31.75
 49
12.6999999999999993
 74
0
 49
-6.3499999999999996
 74
0
 49
0.0
 74
0
 49
-6.3499999999999996
 74
0
 49
0.0
 74
0
 49
-6.3499999999999996
 74
0
  0
LTYPE
  5
53
100
AcDbSymbolTableRecord
100
AcDbLinetypeTableRecord
  2
CENTERX2
 70
0
  3
Center (2x) ________  __  ________  __  _____
 72
65
 73
4
 40
101.6000000000000085
 49
63.5
 74
0
 49
-12.6999999999999993
 74
0
 49
12.6999999999999993
 74
0
 49
-12.6999999999999993
 74
0
  0
LTYPE
  5
54
100
AcDbSymbolTableRecord
100
AcDbLinetypeTableRecord
  2
DOTX2
 70
0
  3
Dot (2x) .  .  .  .  .  .  .  .  .  .  .  .  .  .
 72
65
 73
2
 40
12.6999999999999993
 49
0.0
 74
0
 49
-12.6999999999999993
 74
0
  0
LTYPE
  5
55
100
AcDbSymbolTableRecord
100
AcDbLinetypeTableRecord
  2
DASHEDX2
 70
0
  3
Dashed (2x) ____  ____  ____  ____  ____  ___
 72
65
 73
2
 40
38.0999999999999943
 49
25.3999999999999986
 74
0
 49
-12.6999999999999993
 74
0
  0
LTYPE
  5
56
100
AcDbSymbolTableRecord
100
AcDbLinetypeTableRecord
  2
ACAD_ISO12W100
 70
0
  3
ISO dash double-dot __ . . __ . . __ . . __ . . 
 72
65
 73
6
 40
21.0
 49
12.0
 74
0
 49
-3.0
 74
0
 49
0.0
 74
0
 49
-3.0
 74
0
 49
0.0
 74
0
 49
-3.0
 74
0
  0
LTYPE
  5
57
100
AcDbSymbolTableRecord
100
AcDbLinetypeTableRecord
  2
ACAD_ISO03W100
 70
0
  3
ISO dash space __    __    __    __    __    __
 72
65
 73
2
 40
30.0
 49
12.0
 74
0
 49
-18.0
 74
0
  0
LTYPE
  5
58
100
AcDbSymbolTableRecord
100
AcDbLinetypeTableRecord
  2
DASHDOT2
 70
0
  3
Dash dot (.5x) _._._._._._._._._._._._._._._.
 72
65
 73
4
 40
12.6999999999999993
 49
6.3499999999999996
 74
0
 49
-3.1749999999999998
 74
0
 49
0.0
 74
0
 49
-3.1749999999999998
 74
0
  0
LTYPE
  5
59
100
AcDbSymbolTableRecord
100
AcDbLinetypeTableRecord
  2
ACAD_ISO15W100
 70
0
  3
ISO double-dash triple-dot __ __ . . . __ __ . .
 72
65
 73
10
 40
39.0
 49
12.0
 74
0
 49
-3.0
 74
0
 49
12.0
 74
0
 49
-3.0
 74
0
 49
0.0
 74
0
 49
-3.0
 74
0
 49
0.0
 74
0
 49
-3.0
 74
0
 49
0.0
 74
0
 49
-3.0
 74
0
  0
LTYPE
  5
5A
100
AcDbSymbolTableRecord
100
AcDbLinetypeTableRecord
  2
ACAD_ISO04W100
 70
0
  3
ISO long-dash dot ____ . ____ . ____ . ____ . _
 72
65
 73
4
 40
30.0
 49
24.0
 74
0
 49
-3.0
 74
0
 49
0.0
 74
0
 49
-3.0
 74
0
  0
LTYPE
  5
5B
100
AcDbSymbolTableRecord
100
AcDbLinetypeTableRecord
  2
ACAD_ISO14W100
 70
0
  3
ISO dash triple-dot __ . . . __ . . . __ . . . _
 72
65
 73
8
 40
24.0
 49
12.0
 74
0
 49
-3.0
 74
0
 49
0.0
 74
0
 49
-3.0
 74
0
 49
0.0
 74
0
 49
-3.0
 74
0
 49
0.0
 74
0
 49
-3.0
 74
0
  0
LTYPE
  5
5C
100
AcDbSymbolTableRecord
100
AcDbLinetypeTableRecord
  2
DOT
 70
0
  3
Dot . . . . . . . . . . . . . . . . . . . . . . . .
 72
65
 73
2
 40
6.3499999999999996
 49
0.0
 74
0
 49
-6.3499999999999996
 74
0
  0
LTYPE
  5
5D
100
AcDbSymbolTableRecord
100
AcDbLinetypeTableRecord
  2
TRACKS
 70
0
  3
Tracks -|-|-|-|-|-|-|-|-|-|-|-|-|-|-|-|-|-|-|-|-|-|-|-|-
 72
65
 73
2
 40
7.6200000000000001
 49
3.8100000000000001
 74
0
 49
3.8100000000000001
 74
0
  0
LTYPE
  5
5E
100
AcDbSymbolTableRecord
100
AcDbLinetypeTableRecord
  2
DIVIDE2
 70
0
  3
Divide (.5x) __..__..__..__..__..__..__..__.._
 72
65
 73
6
 40
15.875
 49
6.3499999999999996
 74
0
 49
-3.1749999999999998
 74
0
 49
0.0
 74
0
 49
-3.1749999999999998
 74
0
 49
0.0
 74
0
 49
-3.1749999999999998
 74
0
  0
LTYPE
  5
5F
100
AcDbSymbolTableRecord
100
AcDbLinetypeTableRecord
  2
PHANTOM2
 70
0
  3
Phantom (.5x) ___ _ _ ___ _ _ ___ _ _ ___ _ _
 72
65
 73
6
 40
31.7500000000000036
 49
15.875
 74
0
 49
-3.1749999999999998
 74
0
 49
3.1749999999999998
 74
0
 49
-3.1749999999999998
 74
0
 49
3.1749999999999998
 74
0
 49
-3.1749999999999998
 74
0
  0
ENDTAB
  0
TABLE
  2
LAYER
  5
2
100
AcDbSymbolTable
 70
2
  0
LAYER
  5
10
100
AcDbSymbolTableRecord
100
AcDbLayerTableRecord
  2
0
 70
0
 62
7
420
16777215
  6
Continuous
370
25
390
F
  0
LAYER
  5
60
100
AcDbSymbolTableRecord
100
AcDbLayerTableRecord
  2
Defpoints
 70
0
 62
7
420
16777215
  6
Continuous
290
0
370
-3
390
F
  0
ENDTAB
  0
TABLE
  2
STYLE
  5
3
100
AcDbSymbolTable
 70
1
  0
STYLE
  5
61
100
AcDbSymbolTableRecord
100
AcDbTextStyleTableRecord
  2
Standard
 70
0
 40
0.0
 41
1.0
 50
0.0
 71
0
 42
2.5
  3

  4

1001
ACAD
1000
txt
1071
0
  0
ENDTAB
  0
TABLE
  2
VIEW
  5
6
100
AcDbSymbolTable
 70
0
  0
ENDTAB
  0
TABLE
  2
UCS
  5
7
100
AcDbSymbolTable
 70
0
  0
ENDTAB
  0
TABLE
  2
APPID
  5
9
100
AcDbSymbolTable
 70
1
  0
APPID
  5
12
100
AcDbSymbolTableRecord
100
AcDbRegAppTableRecord
  2
ACAD
 70
0
  0
APPID
  5
62
100
AcDbSymbolTableRecord
100
AcDbRegAppTableRecord
  2
QCAD
 70
0
  0
ENDTAB
  0
TABLE
  2
DIMSTYLE
  5
A
100
AcDbSymbolTable
 70
1
100
AcDbDimStyleTable
 71
0
  0
DIMSTYLE
105
27
100
AcDbSymbolTableRecord
100
AcDbDimStyleTableRecord
  2
Standard
 41
2.5
 42
0.625
 43
3.75
 44
1.25
 70
0
 73
0
 74
0
 77
1
 78
8
140
2.5
141
2.5
143
0.03937007874016
147
0.625
171
3
172
1
271
2
272
2
274
3
278
44
283
0
284
8
340
61
  0
ENDTAB
  0
TABLE
  2
BLOCK_RECORD
  5
1
100
AcDbSymbolTable
 70
1
  0
BLOCK_RECORD
  5
1F
100
AcDbSymbolTableRecord
100
AcDbBlockTableRecord
  2
*Model_Space
340
22
  0
BLOCK_RECORD
  5
1B
100
AcDbSymbolTableRecord
100
AcDbBlockTableRecord
  2
*Paper_Space
340
1E
  0
BLOCK_RECORD
  5
23
100
AcDbSymbolTableRecord
100
AcDbBlockTableRecord
  2
*Paper_Space0
340
26
  0
ENDTAB
  0
ENDSEC
  0
SECTION
  2
BLOCKS
  0
BLOCK
  5
20
100
AcDbEntity
  8
0
100
AcDbBlockBegin
  2
*Model_Space
 70
0
 10
0.0
 20
0.0
 30
0.0
  3
*Model_Space
  1

  0
ENDBLK
  5
21
100
AcDbEntity
  8
0
100
AcDbBlockEnd
  0
BLOCK
  5
1C
100
AcDbEntity
 67
1
  8
0
100
AcDbBlockBegin
  2
*Paper_Space
 70
0
 10
0.0
 20
0.0
 30
0.0
  3
*Paper_Space
  1

  0
ENDBLK
  5
1D
100
AcDbEntity
 67
1
  8
0
100
AcDbBlockEnd
  0
BLOCK
  5
24
100
AcDbEntity
  8
0
100
AcDbBlockBegin
  2
*Paper_Space0
 70
0
 10
0.0
 20
0.0
 30
0.0
  3
*Paper_Space0
  1

  0
ENDBLK
  5
25
100
AcDbEntity
  8
0
100
AcDbBlockEnd
  0
ENDSEC
  0
SECTION
  2
ENTITIES
  0
LINE
  5
63
100
AcDbEntity
  8
0
 62
256
370
-1
 48
1.0
  6
ByLayer
100
AcDbLine
 10
2039.9999999999995453
 20
279.6783008588990924
 30
0.0
 11
2039.9999999999995453
 21
420.0
 31
0.0
  0
LINE
  5
64
100
AcDbEntity
  8
0
 62
256
370
-1
 48
1.0
  6
ByLayer
100
AcDbLine
 10
1440.0
 20
100.0
 30
0.0
 11
1440.0
 21
199.6783008588990924
 31
0.0
  0
LINE
  5
65
100
AcDbEntity
  8
0
 62
256
370
-1
 48
1.0
  6
ByLayer
100
AcDbLine
 10
1440.0
 20
279.6783008588990924
 30
0.0
 11
1440.0
 21
420.0
 31
0.0
  0
LINE
  5
66
100
AcDbEntity
  8
0
 62
256
370
-1
 48
1.0
  6
ByLayer
100
AcDbLine
 10
1440.0
 20
500.0
 30
0.0
 11
1440.0
 21
659.6783008588990924
 31
0.0
  0
LINE
  5
67
100
AcDbEntity
  8
0
 62
256
370
-1
 48
1.0
  6
ByLayer
100
AcDbLine
 10
1440.0
 20
739.6783008588990924
 30
0.0
 11
1440.0
 21
800.0
 31
0.0
  0
LINE
  5
68
100
AcDbEntity
  8
0
 62
256
370
-1
 48
1.0
  6
ByLayer
100
AcDbLine
 10
760.0
 20
100.0000000000001137
 30
0.0
 11
760.0
 21
800.0
 31
0.0
  0
LINE
  5
69
100
AcDbEntity
  8
0
 62
256
370
-1
 48
1.0
  6
ByLayer
100
AcDbLine
 10
1449.9999999999997726
 20
-399.7999999999998977
 30
0.0
 11
1449.9999999999997726
 21
-240.1216991411008053
 31
0.0
  0
LINE
  5
6A
100
AcDbEntity
  8
0
 62
256
370
-1
 48
1.0
  6
ByLayer
100
AcDbLine
 10
1449.9999999999997726
 20
-160.1216991411008053
 30
0.0
 11
1449.9999999999997726
 21
-99.7999999999998977
 31
0.0
  0
LINE
  5
6B
100
AcDbEntity
  8
0
 62
256
370
-1
 48
1.0
  6
ByLayer
100
AcDbLine
 10
1449.9999999999995453
 20
-799.7999999999994998
 30
0.0
 11
1449.9999999999997726
 21
-700.1216991411008621
 31
0.0
  0
LINE
  5
6C
100
AcDbEntity
  8
0
 62
256
370
-1
 48
1.0
  6
ByLayer
100
AcDbLine
 10
1449.9999999999997726
 20
-620.1216991411006347
 30
0.0
 11
1449.9999999999997726
 21
-479.7999999999998977
 31
0.0
  0
LINE
  5
6D
100
AcDbEntity
  8
0
 62
256
370
-1
 48
1.0
  6
ByLayer
100
AcDbLine
 10
2050.0
 20
-160.1216991411008053
 30
0.0
 11
2050.0
 21
-99.7999999999998977
 31
0.0
  0
LINE
  5
6E
100
AcDbEntity
  8
0
 62
256
370
-1
 48
1.0
  6
ByLayer
100
AcDbLine
 10
2049.9999999999995453
 20
-620.1216991411006347
 30
0.0
 11
2049.9999999999995453
 21
-479.7999999999998977
 31
0.0
  0
LINE
  5
6F
100
AcDbEntity
  8
0
 62
256
370
-1
 48
1.0
  6
ByLayer
100
AcDbLine
 10
2049.9999999999995453
 20
-799.7999999999997272
 30
0.0
 11
2050.0
 21
-700.1216991411008621
 31
0.0
  0
LINE
  5
70
100
AcDbEntity
  8
0
 62
256
370
-1
 48
1.0
  6
ByLayer
100
AcDbLine
 10
2050.0
 20
-399.7999999999998977
 30
0.0
 11
2049.9999999999995453
 21
-240.1216991411008053
 31
0.0
  0
LINE
  5
71
100
AcDbEntity
  8
0
 62
256
370
-1
 48
1.0
  6
ByLayer
100
AcDbLine
 10
100.0
 20
100.0
 30
0.0
 11
100.0
 21
800.0
 31
0.0
  0
LINE
  5
72
100
AcDbEntity
  8
0
 62
256
370
-1
 48
1.0
  6
ByLayer
100
AcDbLine
 10
2039.9999999999995453
 20
100.0
 30
0.0
 11
2040.0
 21
199.6783008588990924
 31
0.0
  0
LINE
  5
73
100
AcDbEntity
  8
0
 62
256
370
-1
 48
1.0
  6
ByLayer
100
AcDbLine
 10
2040.0
 20
500.0
 30
0.0
 11
2040.0
 21
659.6783008588990924
 31
0.0
  0
LINE
  5
74
100
AcDbEntity
  8
0
 62
256
370
-1
 48
1.0
  6
ByLayer
100
AcDbLine
 10
2040.0
 20
739.6783008588990924
 30
0.0
 11
2040.0
 21
800.0
 31
0.0
  0
LINE
  5
75
100
AcDbEntity
  8
0
 62
256
370
-1
 48
1.0
  6
ByLayer
100
AcDbLine
 10
1360.0
 20
800.0
 30
0.0
 11
1360.0
 21
100.0000000000001137
 31
0.0
  0
LINE
  5
76
100
AcDbEntity
  8
0
 62
256
370
-1
 48
1.0
  6
ByLayer
100
AcDbLine
 10
700.0
 20
800.0
 30
0.0
 11
700.0
 21
100.0
 31
0.0
  0
LINE
  5
77
100
AcDbEntity
  8
0
 62
256
370
-1
 48
1.0
  6
ByLayer
100
AcDbLine
 10
1540.0
 20
100.0
 30
0.0
 11
1440.0
 21
100.0
 31
0.0
  0
LINE
  5
78
100
AcDbEntity
  8
0
 62
256
370
-1
 48
1.0
  6
ByLayer
100
AcDbLine
 10
860.0
 20
100.0000000000001137
 30
0.0
 11
760.0
 21
100.0000000000001137
 31
0.0
  0
LINE
  5
79
100
AcDbEntity
  8
0
 62
256
370
-1
 48
1.0
  6
ByLayer
100
AcDbLine
 10
1549.9999999999997726
 20
-799.7999999999997272
 30
0.0
 11
1449.9999999999995453
 21
-799.7999999999994998
 31
0.0
  0
LINE
  5
7A
100
AcDbEntity
  8
0
 62
256
370
-1
 48
1.0
  6
ByLayer
100
AcDbLine
 10
200.0
 20
100.0
 30
0.0
 11
100.0
 21
100.0
 31
0.0
  0
LINE
  5
7B
100
AcDbEntity
  8
0
 62
256
370
-1
 48
1.0
  6
ByLayer
100
AcDbLine
 10
760.0
 20
800.0
 30
0.0
 11
866.0660171779820757
 21
906.0660171779823031
 31
0.0
  0
LINE
  5
7C
100
AcDbEntity
  8
0
 62
256
370
-1
 48
1.0
  6
ByLayer
100
AcDbLine
 10
100.0
 20
800.0
 30
0.0
 11
206.0660171779820757
 21
906.0660171779820757
 31
0.0
  0
LINE
  5
7D
100
AcDbEntity
  8
0
 62
256
370
-1
 48
1.0
  6
ByLayer
100
AcDbLine
 10
1360.0
 20
800.0
 30
0.0
 11
1253.9339828220179243
 21
906.0660171779823031
 31
0.0
  0
LINE
  5
7E
100
AcDbEntity
  8
0
 62
256
370
-1
 48
1.0
  6
ByLayer
100
AcDbLine
 10
700.0
 20
800.0
 30
0.0
 11
593.9339828220179243
 21
906.0660171779820757
 31
0.0
  0
LINE
  5
7F
100
AcDbEntity
  8
0
 62
256
370
-1
 48
1.0
  6
ByLayer
100
AcDbLine
 10
1253.9339828220179243
 20
906.0660171779823031
 30
0.0
 11
866.0660171779820757
 21
906.0660171779823031
 31
0.0
  0
LINE
  5
80
100
AcDbEntity
  8
0
 62
256
370
-1
 48
1.0
  6
ByLayer
100
AcDbLine
 10
593.9339828220179243
 20
906.0660171779820757
 30
0.0
 11
206.0660171779820757
 21
906.0660171779820757
 31
0.0
  0
LINE
  5
81
100
AcDbEntity
  8
0
 62
256
370
-1
 48
1.0
  6
ByLayer
100
AcDbLine
 10
880.0
 20
880.0
 30
0.0
 11
1230.0
 21
880.0
 31
0.0
  0
LINE
  5
82
100
AcDbEntity
  8
0
 62
256
370
-1
 48
1.0
  6
ByLayer
100
AcDbLine
 10
220.0
 20
880.0
 30
0.0
 11
570.0
 21
880.0
 31
0.0
  0
LINE
  5
83
100
AcDbEntity
  8
0
 62
256
370
-1
 48
1.0
  6
ByLayer
100
AcDbLine
 10
880.0
 20
850.0
 30
0.0
 11
1230.0
 21
850.0
 31
0.0
  0
LINE
  5
84
100
AcDbEntity
  8
0
 62
256
370
-1
 48
1.0
  6
ByLayer
100
AcDbLine
 10
220.0
 20
850.0
 30
0.0
 11
570.0
 21
850.0
 31
0.0
  0
ARC
  5
85
100
AcDbEntity
  8
0
 62
256
370
-1
 48
1.0
  6
ByLayer
100
AcDbCircle
 10
1230.0
 20
865.0
 30
0.0
 40
15.0
100
AcDbArc
 50
270.0
 51
90.0
  0
ARC
  5
86
100
AcDbEntity
  8
0
 62
256
370
-1
 48
1.0
  6
ByLayer
100
AcDbCircle
 10
570.0
 20
865.0
 30
0.0
 40
15.0
100
AcDbArc
 50
270.0
 51
90.0
  0
ARC
  5
87
100
AcDbEntity
  8
0
 62
256
370
-1
 48
1.0
  6
ByLayer
100
AcDbCircle
 10
880.0
 20
865.0
 30
0.0
 40
15.0
100
AcDbArc
 50
90.0
 51
270.0
  0
ARC
  5
88
100
AcDbEntity
  8
0
 62
256
370
-1
 48
1.0
  6
ByLayer
100
AcDbCircle
 10
220.0
 20
865.0
 30
0.0
 40
15.0
100
AcDbArc
 50
90.0
 51
270.0
  0
LINE
  5
89
100
AcDbEntity
  8
0
 62
256
370
-1
 48
1.0
  6
ByLayer
100
AcDbLine
 10
1940.0
 20
100.0
 30
0.0
 11
1886.9669914110088484
 21
153.0330085889909242
 31
0.0
  0
LINE
  5
8A
100
AcDbEntity
  8
0
 62
256
370
-1
 48
1.0
  6
ByLayer
100
AcDbLine
 10
1540.0
 20
100.0
 30
0.0
 11
1593.0330085889909242
 21
153.0330085889909242
 31
0.0
  0
LINE
  5
8B
100
AcDbEntity
  8
0
 62
256
370
-1
 48
1.0
  6
ByLayer
100
AcDbLine
 10
1549.9999999999997726
 20
-799.7999999999997272
 30
0.0
 11
1603.0330085889906968
 21
-746.7669914110085756
 31
0.0
  0
LINE
  5
8C
100
AcDbEntity
  8
0
 62
256
370
-1
 48
1.0
  6
ByLayer
100
AcDbLine
 10
1949.9999999999997726
 20
-799.7999999999997272
 30
0.0
 11
1896.9669914110088484
 21
-746.7669914110085756
 31
0.0
  0
LINE
  5
8D
100
AcDbEntity
  8
0
 62
256
370
-1
 48
1.0
  6
ByLayer
100
AcDbLine
 10
1260.0
 20
100.0000000000001137
 30
0.0
 11
1206.9669914110088484
 21
153.0330085889911516
 31
0.0
  0
LINE
  5
8E
100
AcDbEntity
  8
0
 62
256
370
-1
 48
1.0
  6
ByLayer
100
AcDbLine
 10
860.0
 20
100.0000000000001137
 30
0.0
 11
913.0330085889911516
 21
153.0330085889911516
 31
0.0
  0
LINE
  5
8F
100
AcDbEntity
  8
0
 62
256
370
-1
 48
1.0
  6
ByLayer
100
AcDbLine
 10
600.0
 20
100.0
 30
0.0
 11
546.9669914110088484
 21
153.0330085889910379
 31
0.0
  0
LINE
  5
90
100
AcDbEntity
  8
0
 62
256
370
-1
 48
1.0
  6
ByLayer
100
AcDbLine
 10
200.0
 20
100.0
 30
0.0
 11
253.0330085889911516
 21
153.0330085889910379
 31
0.0
  0
LINE
  5
91
100
AcDbEntity
  8
0
 62
256
370
-1
 48
1.0
  6
ByLayer
100
AcDbLine
 10
1593.0330085889909242
 20
153.0330085889909242
 30
0.0
 11
1886.9669914110090758
 21
153.0330085889909242
 31
0.0
  0
LINE
  5
92
100
AcDbEntity
  8
0
 62
256
370
-1
 48
1.0
  6
ByLayer
100
AcDbLine
 10
1603.0330085889906968
 20
-746.7669914110085756
 30
0.0
 11
1896.9669914110088484
 21
-746.7669914110085756
 31
0.0
  0
LINE
  5
93
100
AcDbEntity
  8
0
 62
256
370
-1
 48
1.0
  6
ByLayer
100
AcDbLine
 10
913.0330085889911516
 20
153.0330085889911516
 30
0.0
 11
1206.9669914110090758
 21
153.0330085889911516
 31
0.0
  0
LINE
  5
94
100
AcDbEntity
  8
0
 62
256
370
-1
 48
1.0
  6
ByLayer
100
AcDbLine
 10
253.0330085889911516
 20
153.0330085889910379
 30
0.0
 11
546.9669914110090758
 21
153.0330085889910379
 31
0.0
  0
LINE
  5
95
100
AcDbEntity
  8
0
 62
256
370
-1
 48
1.0
  6
ByLayer
100
AcDbLine
 10
2040.0
 20
100.0
 30
0.0
 11
1940.0
 21
100.0
 31
0.0
  0
LINE
  5
96
100
AcDbEntity
  8
0
 62
256
370
-1
 48
1.0
  6
ByLayer
100
AcDbLine
 10
2050.0
 20
-799.7999999999997272
 30
0.0
 11
1949.9999999999997726
 21
-799.7999999999997272
 31
0.0
  0
LINE
  5
97
100
AcDbEntity
  8
0
 62
256
370
-1
 48
1.0
  6
ByLayer
100
AcDbLine
 10
1360.0
 20
100.0000000000001137
 30
0.0
 11
1260.0
 21
100.0000000000001137
 31
0.0
  0
LINE
  5
98
100
AcDbEntity
  8
0
 62
256
370
-1
 48
1.0
  6
ByLayer
100
AcDbLine
 10
700.0
 20
100.0
 30
0.0
 11
600.0
 21
100.0
 31
0.0
  0
LINE
  5
99
100
AcDbEntity
  8
0
 62
256
370
-1
 48
1.0
  6
ByLayer
100
AcDbLine
 10
1440.0
 20
199.6783008588990924
 30
0.0
 11
1440.0
 21
199.6783008588990924
 31
0.0
  0
LINE
  5
9A
100
AcDbEntity
  8
0
 62
256
370
-1
 48
1.0
  6
ByLayer
100
AcDbLine
 10
1440.0
 20
199.6783008588990924
 30
0.0
 11
1440.0
 21
199.6783008588990924
 31
0.0
  0
LINE
  5
9B
100
AcDbEntity
  8
0
 62
256
370
-1
 48
1.0
  6
ByLayer
100
AcDbLine
 10
1425.0000000000002274
 20
199.6783008588990924
 30
0.0
 11
1440.0
 21
199.6783008588990924
 31
0.0
  0
LINE
  5
9C
100
AcDbEntity
  8
0
 62
256
370
-1
 48
1.0
  6
ByLayer
100
AcDbLine
 10
1440.0
 20
199.6783008588990924
 30
0.0
 11
1440.0000000000002274
 21
199.6783008588990924
 31
0.0
  0
LINE
  5
9D
100
AcDbEntity
  8
0
 62
256
370
-1
 48
1.0
  6
ByLayer
100
AcDbLine
 10
1440.0000000000002274
 20
199.6783008588990924
 30
0.0
 11
1440.0
 21
199.6783008588990924
 31
0.0
  0
LINE
  5
9E
100
AcDbEntity
  8
0
 62
256
370
-1
 48
1.0
  6
ByLayer
100
AcDbLine
 10
1425.0000000000002274
 20
420.0
 30
0.0
 11
1440.0000000000002274
 21
420.0
 31
0.0
  0
LINE
  5
9F
100
AcDbEntity
  8
0
 62
256
370
-1
 48
1.0
  6
ByLayer
100
AcDbLine
 10
1440.0000000000002274
 20
420.0
 30
0.0
 11
1440.0
 21
420.0
 31
0.0
  0
LINE
  5
A0
100
AcDbEntity
  8
0
 62
256
370
-1
 48
1.0
  6
ByLayer
100
AcDbLine
 10
1440.0
 20
659.6783008588990924
 30
0.0
 11
1439.9999999999997726
 21
659.6783008588990924
 31
0.0
  0
LINE
  5
A1
100
AcDbEntity
  8
0
 62
256
370
-1
 48
1.0
  6
ByLayer
100
AcDbLine
 10
1425.0
 20
659.6783008588990924
 30
0.0
 11
1440.0
 21
659.6783008588990924
 31
0.0
  0
LINE
  5
A2
100
AcDbEntity
  8
0
 62
256
370
-1
 48
1.0
  6
ByLayer
100
AcDbLine
 10
1324.8999999999998636
 20
199.6783008588993198
 30
0.0
 11
1340.0
 21
199.6783008588993198
 31
0.0
  0
LINE
  5
A3
100
AcDbEntity
  8
0
 62
256
370
-1
 48
1.0
  6
ByLayer
100
AcDbLine
 10
1324.8999999999998636
 20
420.3033008588993198
 30
0.0
 11
1340.0
 21
420.3033008588993198
 31
0.0
  0
LINE
  5
A4
100
AcDbEntity
  8
0
 62
256
370
-1
 48
1.0
  6
ByLayer
100
AcDbLine
 10
1324.8999999999998636
 20
659.6783008588993198
 30
0.0
 11
1340.0
 21
659.6783008588993198
 31
0.0
  0
LINE
  5
A5
100
AcDbEntity
  8
0
 62
256
370
-1
 48
1.0
  6
ByLayer
100
AcDbLine
 10
1280.0
 20
785.2033008588991834
 30
0.0
 11
1280.0
 21
800.3033008588990924
 31
0.0
  0
LINE
  5
A6
100
AcDbEntity
  8
0
 62
256
370
-1
 48
1.0
  6
ByLayer
100
AcDbLine
 10
780.0
 20
199.6783008588992061
 30
0.0
 11
795.0999999999999091
 21
199.6783008588992061
 31
0.0
  0
LINE
  5
A7
100
AcDbEntity
  8
0
 62
256
370
-1
 48
1.0
  6
ByLayer
100
AcDbLine
 10
780.0
 20
420.3033008588992061
 30
0.0
 11
795.0999999999999091
 21
420.3033008588992061
 31
0.0
  0
LINE
  5
A8
100
AcDbEntity
  8
0
 62
256
370
-1
 48
1.0
  6
ByLayer
100
AcDbLine
 10
1960.0
 20
785.2033008588991834
 30
0.0
 11
1960.0
 21
800.3033008588990924
 31
0.0
  0
LINE
  5
A9
100
AcDbEntity
  8
0
 62
256
370
-1
 48
1.0
  6
ByLayer
100
AcDbLine
 10
920.0
 20
785.2033008588991834
 30
0.0
 11
920.0
 21
800.3033008588990924
 31
0.0
  0
LINE
  5
AA
100
AcDbEntity
  8
0
 62
256
370
-1
 48
1.0
  6
ByLayer
100
AcDbLine
 10
780.0
 20
659.6783008588992061
 30
0.0
 11
795.0999999999999091
 21
659.6783008588992061
 31
0.0
  0
LINE
  5
AB
100
AcDbEntity
  8
0
 62
256
370
-1
 48
1.0
  6
ByLayer
100
AcDbLine
 10
1510.0000000000002274
 20
1105.4834957055043105
 30
0.0
 11
1510.0000000000002274
 21
1105.4834957055043105
 31
0.0
  0
LINE
  5
AC
100
AcDbEntity
  8
0
 62
256
370
-1
 48
1.0
  6
ByLayer
100
AcDbLine
 10
1879.9999999999997726
 20
1090.3834957055039467
 30
0.0
 11
1879.9999999999997726
 21
1105.4834957055040832
 31
0.0
  0
LINE
  5
AD
100
AcDbEntity
  8
0
 62
256
370
-1
 48
1.0
  6
ByLayer
100
AcDbLine
 10
1520.0000000000002274
 20
1090.3834957055032646
 30
0.0
 11
1520.0000000000002274
 21
1105.4834957055045379
 31
0.0
  0
LINE
  5
AE
100
AcDbEntity
  8
0
 62
256
370
-1
 48
1.0
  6
ByLayer
100
AcDbLine
 10
2055.1000000000003638
 20
1589.9934907702329383
 30
0.0
 11
2040.0000000000002274
 21
1589.9934907702327109
 31
0.0
  0
LINE
  5
AF
100
AcDbEntity
  8
0
 62
256
370
-1
 48
1.0
  6
ByLayer
100
AcDbLine
 10
2055.1000000000003638
 20
1229.9934907702324836
 30
0.0
 11
2040.0000000000002274
 21
1229.9934907702327109
 31
0.0
  0
LINE
  5
B0
100
AcDbEntity
  8
0
 62
256
370
-1
 48
1.0
  6
ByLayer
100
AcDbLine
 10
1424.9000000000003183
 20
1229.9934907702333931
 30
0.0
 11
1440.0
 21
1229.9934907702333931
 31
0.0
  0
LINE
  5
B1
100
AcDbEntity
  8
0
 62
256
370
-1
 48
1.0
  6
ByLayer
100
AcDbLine
 10
1424.8999999999998636
 20
1589.9934907702333931
 30
0.0
 11
1440.0000000000002274
 21
1589.9934907702333931
 31
0.0
  0
LINE
  5
B2
100
AcDbEntity
  8
0
 62
256
370
-1
 48
1.0
  6
ByLayer
100
AcDbLine
 10
1600.0
 20
784.9000000000000909
 30
0.0
 11
1600.0
 21
800.3033008588990924
 31
0.0
  0
LINE
  5
B3
100
AcDbEntity
  8
0
 62
256
370
-1
 48
1.0
  6
ByLayer
100
AcDbLine
 10
1434.9999999999997726
 20
-240.1216991411008053
 30
0.0
 11
1449.9999999999997726
 21
-240.1216991411008053
 31
0.0
  0
LINE
  5
B4
100
AcDbEntity
  8
0
 62
256
370
-1
 48
1.0
  6
ByLayer
100
AcDbLine
 10
1449.9999999999997726
 20
-479.7999999999998977
 30
0.0
 11
1449.9999999999997726
 21
-479.7999999999998977
 31
0.0
  0
LINE
  5
B5
100
AcDbEntity
  8
0
 62
256
370
-1
 48
1.0
  6
ByLayer
100
AcDbLine
 10
1449.9999999999997726
 20
-240.1216991411008053
 30
0.0
 11
1449.9999999999997726
 21
-240.1216991411008053
 31
0.0
  0
LINE
  5
B6
100
AcDbEntity
  8
0
 62
256
370
-1
 48
1.0
  6
ByLayer
100
AcDbLine
 10
1449.9999999999997726
 20
-700.1216991411008621
 30
0.0
 11
1449.9999999999997726
 21
-700.1216991411008621
 31
0.0
  0
LINE
  5
B7
100
AcDbEntity
  8
0
 62
256
370
-1
 48
1.0
  6
ByLayer
100
AcDbLine
 10
1434.9999999999997726
 20
-479.7999999999998977
 30
0.0
 11
1449.9999999999997726
 21
-479.7999999999998977
 31
0.0
  0
LINE
  5
B8
100
AcDbEntity
  8
0
 62
256
370
-1
 48
1.0
  6
ByLayer
100
AcDbLine
 10
1434.9999999999997726
 20
-700.1216991411008621
 30
0.0
 11
1449.9999999999997726
 21
-700.1216991411008621
 31
0.0
  0
LINE
  5
B9
100
AcDbEntity
  8
0
 62
256
370
-1
 48
1.0
  6
ByLayer
100
AcDbLine
 10
1449.9999999999997726
 20
-700.1216991411008621
 30
0.0
 11
1449.9999999999997726
 21
-700.1216991411008621
 31
0.0
  0
LINE
  5
BA
100
AcDbEntity
  8
0
 62
256
370
-1
 48
1.0
  6
ByLayer
100
AcDbLine
 10
1449.9999999999997726
 20
-700.1216991411008621
 30
0.0
 11
1449.9999999999997726
 21
-700.1216991411008621
 31
0.0
  0
LINE
  5
BB
100
AcDbEntity
  8
0
 62
256
370
-1
 48
1.0
  6
ByLayer
100
AcDbLine
 10
1449.9999999999997726
 20
-700.1216991411008621
 30
0.0
 11
1449.9999999999997726
 21
-700.1216991411008621
 31
0.0
  0
LINE
  5
BC
100
AcDbEntity
  8
0
 62
256
370
-1
 48
1.0
  6
ByLayer
100
AcDbLine
 10
2049.9999999999995453
 20
-479.7999999999998977
 30
0.0
 11
2049.9999999999995453
 21
-479.7999999999998977
 31
0.0
  0
LINE
  5
BD
100
AcDbEntity
  8
0
 62
256
370
-1
 48
1.0
  6
ByLayer
100
AcDbLine
 10
2064.9999999999990905
 20
-700.1216991411008621
 30
0.0
 11
2050.0
 21
-700.1216991411008621
 31
0.0
  0
LINE
  5
BE
100
AcDbEntity
  8
0
 62
256
370
-1
 48
1.0
  6
ByLayer
100
AcDbLine
 10
2064.9999999999995453
 20
-479.7999999999998977
 30
0.0
 11
2049.9999999999995453
 21
-479.7999999999998977
 31
0.0
  0
LINE
  5
BF
100
AcDbEntity
  8
0
 62
256
370
-1
 48
1.0
  6
ByLayer
100
AcDbLine
 10
1609.9999999999997726
 20
-115.4966991411008053
 30
0.0
 11
1609.9999999999997726
 21
-99.4966991411008053
 31
0.0
  0
LINE
  5
C0
100
AcDbEntity
  8
0
 62
256
370
-1
 48
1.0
  6
ByLayer
100
AcDbLine
 10
2065.0
 20
-240.1216991411008053
 30
0.0
 11
2049.9999999999995453
 21
-240.1216991411008053
 31
0.0
  0
LINE
  5
C1
100
AcDbEntity
  8
0
 62
256
370
-1
 48
1.0
  6
ByLayer
100
AcDbLine
 10
2049.9999999999995453
 20
-700.1216991411008621
 30
0.0
 11
2050.0
 21
-700.1216991411008621
 31
0.0
  0
LINE
  5
C2
100
AcDbEntity
  8
0
 62
256
370
-1
 48
1.0
  6
ByLayer
100
AcDbLine
 10
1609.9999999999997726
 20
-726.7669914110085756
 30
0.0
 11
1609.9999999999997726
 21
-710.7669914110085756
 31
0.0
  0
LINE
  5
C3
100
AcDbEntity
  8
0
 62
256
370
-1
 48
1.0
  6
ByLayer
100
AcDbLine
 10
2050.0
 20
-700.1216991411008621
 30
0.0
 11
2049.9999999999995453
 21
-700.1216991411008621
 31
0.0
  0
LINE
  5
C4
100
AcDbEntity
  8
0
 62
256
370
-1
 48
1.0
  6
ByLayer
100
AcDbLine
 10
1969.9999999999997726
 20
-726.766991411008803
 30
0.0
 11
1969.9999999999997726
 21
-710.766991411008803
 31
0.0
  0
LINE
  5
C5
100
AcDbEntity
  8
0
 62
256
370
-1
 48
1.0
  6
ByLayer
100
AcDbLine
 10
2049.9999999999995453
 20
-240.1216991411008053
 30
0.0
 11
2050.0
 21
-240.1216991411008053
 31
0.0
  0
LINE
  5
C6
100
AcDbEntity
  8
0
 62
256
370
-1
 48
1.0
  6
ByLayer
100
AcDbLine
 10
2050.0
 20
-700.1216991411008621
 30
0.0
 11
2050.0
 21
-700.1216991411008621
 31
0.0
  0
LINE
  5
C7
100
AcDbEntity
  8
0
 62
256
370
-1
 48
1.0
  6
ByLayer
100
AcDbLine
 10
2050.0
 20
-700.1216991411008621
 30
0.0
 11
2050.0
 21
-700.1216991411008621
 31
0.0
  0
LINE
  5
C8
100
AcDbEntity
  8
0
 62
256
370
-1
 48
1.0
  6
ByLayer
100
AcDbLine
 10
1969.9999999999997726
 20
-115.4966991411008053
 30
0.0
 11
1969.9999999999997726
 21
-99.4966991411008053
 31
0.0
  0
LINE
  5
C9
100
AcDbEntity
  8
0
 62
256
370
-1
 48
1.0
  6
ByLayer
100
AcDbLine
 10
1280.0
 20
173.933008588991072
 30
0.0
 11
1280.0
 21
189.0330085889910947
 31
0.0
  0
LINE
  5
CA
100
AcDbEntity
  8
0
 62
256
370
-1
 48
1.0
  6
ByLayer
100
AcDbLine
 10
1280.0
 20
325.2033008588991834
 30
0.0
 11
1280.0
 21
340.3033008588992061
 31
0.0
  0
LINE
  5
CB
100
AcDbEntity
  8
0
 62
256
370
-1
 48
1.0
  6
ByLayer
100
AcDbLine
 10
920.0
 20
485.2033008588991834
 30
0.0
 11
920.0
 21
500.3033008588992061
 31
0.0
  0
LINE
  5
CC
100
AcDbEntity
  8
0
 62
256
370
-1
 48
1.0
  6
ByLayer
100
AcDbLine
 10
1280.0
 20
485.2033008588991834
 30
0.0
 11
1280.0
 21
500.3033008588992061
 31
0.0
  0
LINE
  5
CD
100
AcDbEntity
  8
0
 62
256
370
-1
 48
1.0
  6
ByLayer
100
AcDbLine
 10
920.0
 20
173.9330085889911288
 30
0.0
 11
920.0
 21
189.0330085889911516
 31
0.0
  0
LINE
  5
CE
100
AcDbEntity
  8
0
 62
256
370
-1
 48
1.0
  6
ByLayer
100
AcDbLine
 10
920.0
 20
325.2033008588991834
 30
0.0
 11
920.0
 21
340.3033008588992061
 31
0.0
  0
LINE
  5
CF
100
AcDbEntity
  8
0
 62
256
370
-1
 48
1.0
  6
ByLayer
100
AcDbLine
 10
1960.0
 20
173.9330085889910151
 30
0.0
 11
1960.0
 21
189.0330085889909242
 31
0.0
  0
LINE
  5
D0
100
AcDbEntity
  8
0
 62
256
370
-1
 48
1.0
  6
ByLayer
100
AcDbLine
 10
1960.0
 20
325.2033008588991834
 30
0.0
 11
1960.0
 21
340.3033008588990924
 31
0.0
  0
LINE
  5
D1
100
AcDbEntity
  8
0
 62
256
370
-1
 48
1.0
  6
ByLayer
100
AcDbLine
 10
1600.0
 20
173.9330085889910151
 30
0.0
 11
1600.0
 21
189.0330085889909242
 31
0.0
  0
LINE
  5
D2
100
AcDbEntity
  8
0
 62
256
370
-1
 48
1.0
  6
ByLayer
100
AcDbLine
 10
1600.0
 20
325.2033008588991834
 30
0.0
 11
1600.0
 21
340.3033008588990924
 31
0.0
  0
LINE
  5
D3
100
AcDbEntity
  8
0
 62
256
370
-1
 48
1.0
  6
ByLayer
100
AcDbLine
 10
1960.0
 20
485.2033008588991834
 30
0.0
 11
1960.0
 21
500.3033008588990924
 31
0.0
  0
LINE
  5
D4
100
AcDbEntity
  8
0
 62
256
370
-1
 48
1.0
  6
ByLayer
100
AcDbLine
 10
2040.0
 20
199.6783008588990924
 30
0.0
 11
2040.0
 21
199.6783008588990924
 31
0.0
  0
LINE
  5
D5
100
AcDbEntity
  8
0
 62
256
370
-1
 48
1.0
  6
ByLayer
100
AcDbLine
 10
2040.0
 20
199.6783008588990924
 30
0.0
 11
2040.0
 21
199.6783008588990924
 31
0.0
  0
LINE
  5
D6
100
AcDbEntity
  8
0
 62
256
370
-1
 48
1.0
  6
ByLayer
100
AcDbLine
 10
2040.0
 20
659.6783008588990924
 30
0.0
 11
2040.0
 21
659.6783008588990924
 31
0.0
  0
LINE
  5
D7
100
AcDbEntity
  8
0
 62
256
370
-1
 48
1.0
  6
ByLayer
100
AcDbLine
 10
2055.0
 20
659.6783008588990924
 30
0.0
 11
2040.0
 21
659.6783008588990924
 31
0.0
  0
LINE
  5
D8
100
AcDbEntity
  8
0
 62
256
370
-1
 48
1.0
  6
ByLayer
100
AcDbLine
 10
2054.9999999999995453
 20
420.0
 30
0.0
 11
2039.9999999999995453
 21
420.0
 31
0.0
  0
LINE
  5
D9
100
AcDbEntity
  8
0
 62
256
370
-1
 48
1.0
  6
ByLayer
100
AcDbLine
 10
2039.9999999999995453
 20
420.0
 30
0.0
 11
2039.9999999999995453
 21
420.0
 31
0.0
  0
LINE
  5
DA
100
AcDbEntity
  8
0
 62
256
370
-1
 48
1.0
  6
ByLayer
100
AcDbLine
 10
584.9000000000006594
 20
1224.5099950647290825
 30
0.0
 11
600.0000000000003411
 21
1224.5099950647290825
 31
0.0
  0
LINE
  5
DB
100
AcDbEntity
  8
0
 62
256
370
-1
 48
1.0
  6
ByLayer
100
AcDbLine
 10
584.9000000000002046
 20
1584.5099950647290825
 30
0.0
 11
600.0000000000005684
 21
1584.5099950647290825
 31
0.0
  0
LINE
  5
DC
100
AcDbEntity
  8
0
 62
256
370
-1
 48
1.0
  6
ByLayer
100
AcDbLine
 10
1215.1000000000008185
 20
1584.5099950647286278
 30
0.0
 11
1200.0000000000004547
 21
1584.5099950647284004
 31
0.0
  0
LINE
  5
DD
100
AcDbEntity
  8
0
 62
256
370
-1
 48
1.0
  6
ByLayer
100
AcDbLine
 10
1215.1000000000008185
 20
1224.509995064728173
 30
0.0
 11
1200.0000000000004547
 21
1224.5099950647284004
 31
0.0
  0
LINE
  5
DE
100
AcDbEntity
  8
0
 62
256
370
-1
 48
1.0
  6
ByLayer
100
AcDbLine
 10
670.0000000000003411
 20
1629.019990129458165
 30
0.0
 11
670.0000000000003411
 21
1629.019990129458165
 31
0.0
  0
LINE
  5
DF
100
AcDbEntity
  8
0
 62
256
370
-1
 48
1.0
  6
ByLayer
100
AcDbLine
 10
1040.0
 20
1084.8999999999996362
 30
0.0
 11
1040.0
 21
1099.9999999999997726
 31
0.0
  0
LINE
  5
E0
100
AcDbEntity
  8
0
 62
256
370
-1
 48
1.0
  6
ByLayer
100
AcDbLine
 10
680.0000000000005684
 20
1084.8999999999989541
 30
0.0
 11
680.0000000000005684
 21
1100.0000000000002274
 31
0.0
  0
LINE
  5
E1
100
AcDbEntity
  8
0
 62
256
370
-1
 48
1.0
  6
ByLayer
100
AcDbLine
 10
670.0000000000005684
 20
1100.0
 30
0.0
 11
670.0000000000005684
 21
1100.0
 31
0.0
  0
LINE
  5
E2
100
AcDbEntity
  8
0
 62
256
370
-1
 48
1.0
  6
ByLayer
100
AcDbLine
 10
1520.0000000000002274
 20
1650.3834957055055384
 30
0.0
 11
1520.0000000000004547
 21
1635.2834957055042651
 31
0.0
  0
LINE
  5
E3
100
AcDbEntity
  8
0
 62
256
370
-1
 48
1.0
  6
ByLayer
100
AcDbLine
 10
1880.0
 20
1650.3834957055050836
 30
0.0
 11
1879.9999999999997726
 21
1635.2834957055049472
 31
0.0
  0
LINE
  5
E4
100
AcDbEntity
  8
0
 62
256
370
-1
 48
1.0
  6
ByLayer
100
AcDbLine
 10
1510.0000000000002274
 20
1635.2834957055044924
 30
0.0
 11
1510.0000000000002274
 21
1635.2834957055044924
 31
0.0
  0
LINE
  5
E5
100
AcDbEntity
  8
0
 62
256
370
-1
 48
1.0
  6
ByLayer
100
AcDbLine
 10
120.0
 20
199.6783008588990924
 30
0.0
 11
135.0999999999999091
 21
199.6783008588990924
 31
0.0
  0
LINE
  5
E6
100
AcDbEntity
  8
0
 62
256
370
-1
 48
1.0
  6
ByLayer
100
AcDbLine
 10
120.0
 20
420.3033008588990924
 30
0.0
 11
135.0999999999999091
 21
420.3033008588990924
 31
0.0
  0
LINE
  5
E7
100
AcDbEntity
  8
0
 62
256
370
-1
 48
1.0
  6
ByLayer
100
AcDbLine
 10
664.8999999999998636
 20
659.6783008588992061
 30
0.0
 11
680.0
 21
659.6783008588992061
 31
0.0
  0
LINE
  5
E8
100
AcDbEntity
  8
0
 62
256
370
-1
 48
1.0
  6
ByLayer
100
AcDbLine
 10
620.0
 20
785.2033008588991834
 30
0.0
 11
620.0
 21
800.3033008588990924
 31
0.0
  0
LINE
  5
E9
100
AcDbEntity
  8
0
 62
256
370
-1
 48
1.0
  6
ByLayer
100
AcDbLine
 10
664.8999999999998636
 20
199.6783008588992061
 30
0.0
 11
680.0
 21
199.6783008588992061
 31
0.0
  0
LINE
  5
EA
100
AcDbEntity
  8
0
 62
256
370
-1
 48
1.0
  6
ByLayer
100
AcDbLine
 10
664.8999999999998636
 20
420.3033008588992061
 30
0.0
 11
680.0
 21
420.3033008588992061
 31
0.0
  0
LINE
  5
EB
100
AcDbEntity
  8
0
 62
256
370
-1
 48
1.0
  6
ByLayer
100
AcDbLine
 10
260.0
 20
173.9330085889910151
 30
0.0
 11
260.0
 21
189.0330085889910379
 31
0.0
  0
LINE
  5
EC
100
AcDbEntity
  8
0
 62
256
370
-1
 48
1.0
  6
ByLayer
100
AcDbLine
 10
260.0
 20
325.2033008588990697
 30
0.0
 11
260.0
 21
340.3033008588990924
 31
0.0
  0
LINE
  5
ED
100
AcDbEntity
  8
0
 62
256
370
-1
 48
1.0
  6
ByLayer
100
AcDbLine
 10
260.0
 20
485.2033008588990697
 30
0.0
 11
260.0
 21
500.3033008588990924
 31
0.0
  0
LINE
  5
EE
100
AcDbEntity
  8
0
 62
256
370
-1
 48
1.0
  6
ByLayer
100
AcDbLine
 10
620.0
 20
485.2033008588990697
 30
0.0
 11
620.0
 21
500.3033008588990924
 31
0.0
  0
LINE
  5
EF
100
AcDbEntity
  8
0
 62
256
370
-1
 48
1.0
  6
ByLayer
100
AcDbLine
 10
620.0
 20
173.9330085889909583
 30
0.0
 11
620.0
 21
189.033008588990981
 31
0.0
  0
LINE
  5
F0
100
AcDbEntity
  8
0
 62
256
370
-1
 48
1.0
  6
ByLayer
100
AcDbLine
 10
620.0
 20
325.2033008588990697
 30
0.0
 11
620.0
 21
340.3033008588990924
 31
0.0
  0
LINE
  5
F1
100
AcDbEntity
  8
0
 62
256
370
-1
 48
1.0
  6
ByLayer
100
AcDbLine
 10
260.0
 20
785.2033008588991834
 30
0.0
 11
260.0
 21
800.3033008588990924
 31
0.0
  0
LINE
  5
F2
100
AcDbEntity
  8
0
 62
256
370
-1
 48
1.0
  6
ByLayer
100
AcDbLine
 10
120.0
 20
659.6783008588990924
 30
0.0
 11
135.0999999999999091
 21
659.6783008588990924
 31
0.0
  0
LINE
  5
F3
100
AcDbEntity
  8
0
 62
256
370
-1
 48
1.0
  6
ByLayer
100
AcDbLine
 10
1600.0
 20
485.2033008588991834
 30
0.0
 11
1600.0
 21
500.3033008588990924
 31
0.0
  0
LINE
  5
F4
100
AcDbEntity
  8
0
 62
256
370
-1
 48
1.0
  6
ByLayer
100
AcDbLine
 10
2040.0
 20
199.6783008588990924
 30
0.0
 11
2039.9999999999990905
 21
199.6783008588990924
 31
0.0
  0
LINE
  5
F5
100
AcDbEntity
  8
0
 62
256
370
-1
 48
1.0
  6
ByLayer
100
AcDbLine
 10
2039.9999999999990905
 20
199.6783008588990924
 30
0.0
 11
2040.0
 21
199.6783008588990924
 31
0.0
  0
LINE
  5
F6
100
AcDbEntity
  8
0
 62
256
370
-1
 48
1.0
  6
ByLayer
100
AcDbLine
 10
2054.9999999999990905
 20
199.6783008588990924
 30
0.0
 11
2040.0
 21
199.6783008588990924
 31
0.0
  0
LINE
  5
F7
100
AcDbEntity
  8
0
 62
256
370
-1
 48
1.0
  6
ByLayer
100
AcDbLine
 10
135.0999999999999091
 20
420.3033008588990924
 30
0.0
 11
135.0999999999999091
 21
500.3033008588990924
 31
0.0
  0
LINE
  5
F8
100
AcDbEntity
  8
0
 62
256
370
-1
 48
1.0
  6
ByLayer
100
AcDbLine
 10
260.0
 20
800.3033008588990924
 30
0.0
 11
180.0
 21
800.3033008588990924
 31
0.0
  0
LINE
  5
F9
100
AcDbEntity
  8
0
 62
256
370
-1
 48
1.0
  6
ByLayer
100
AcDbLine
 10
260.0
 20
500.3033008588990924
 30
0.0
 11
180.0
 21
500.3033008588990924
 31
0.0
  0
LINE
  5
FA
100
AcDbEntity
  8
0
 62
256
370
-1
 48
1.0
  6
ByLayer
100
AcDbLine
 10
135.0999999999999091
 20
199.6783008588990924
 30
0.0
 11
135.0999999999999091
 21
279.6783008588990924
 31
0.0
  0
LINE
  5
FB
100
AcDbEntity
  8
0
 62
256
370
-1
 48
1.0
  6
ByLayer
100
AcDbLine
 10
680.0
 20
659.6783008588992061
 30
0.0
 11
680.0
 21
739.6783008588992061
 31
0.0
  0
LINE
  5
FC
100
AcDbEntity
  8
0
 62
256
370
-1
 48
1.0
  6
ByLayer
100
AcDbLine
 10
680.0
 20
199.6783008588992061
 30
0.0
 11
680.0
 21
279.6783008588992061
 31
0.0
  0
LINE
  5
FD
100
AcDbEntity
  8
0
 62
256
370
-1
 48
1.0
  6
ByLayer
100
AcDbLine
 10
1340.0
 20
420.3033008588993198
 30
0.0
 11
1340.0
 21
500.3033008588993198
 31
0.0
  0
LINE
  5
FE
100
AcDbEntity
  8
0
 62
256
370
-1
 48
1.0
  6
ByLayer
100
AcDbLine
 10
920.0
 20
500.3033008588992061
 30
0.0
 11
840.0
 21
500.3033008588992061
 31
0.0
  0
LINE
  5
FF
100
AcDbEntity
  8
0
 62
256
370
-1
 48
1.0
  6
ByLayer
100
AcDbLine
 10
1340.0
 20
659.6783008588993198
 30
0.0
 11
1340.0
 21
739.6783008588993198
 31
0.0
  0
LINE
  5
100
100
AcDbEntity
  8
0
 62
256
370
-1
 48
1.0
  6
ByLayer
100
AcDbLine
 10
1340.0
 20
199.6783008588993198
 30
0.0
 11
1340.0
 21
279.6783008588993198
 31
0.0
  0
LINE
  5
101
100
AcDbEntity
  8
0
 62
256
370
-1
 48
1.0
  6
ByLayer
100
AcDbLine
 10
795.0999999999999091
 20
199.6783008588992061
 30
0.0
 11
795.0999999999999091
 21
279.6783008588992061
 31
0.0
  0
LINE
  5
102
100
AcDbEntity
  8
0
 62
256
370
-1
 48
1.0
  6
ByLayer
100
AcDbLine
 10
795.0999999999999091
 20
420.3033008588992061
 30
0.0
 11
795.0999999999999091
 21
500.3033008588992061
 31
0.0
  0
LINE
  5
103
100
AcDbEntity
  8
0
 62
256
370
-1
 48
1.0
  6
ByLayer
100
AcDbLine
 10
920.0
 20
800.3033008588990924
 30
0.0
 11
840.0
 21
800.3033008588990924
 31
0.0
  0
LINE
  5
104
100
AcDbEntity
  8
0
 62
256
370
-1
 48
1.0
  6
ByLayer
100
AcDbLine
 10
1280.0
 20
800.3033008588990924
 30
0.0
 11
1200.0
 21
800.3033008588990924
 31
0.0
  0
LINE
  5
105
100
AcDbEntity
  8
0
 62
256
370
-1
 48
1.0
  6
ByLayer
100
AcDbLine
 10
795.0999999999999091
 20
659.6783008588992061
 30
0.0
 11
795.0999999999999091
 21
739.6783008588992061
 31
0.0
  0
LINE
  5
106
100
AcDbEntity
  8
0
 62
256
370
-1
 48
1.0
  6
ByLayer
100
AcDbLine
 10
1280.0
 20
340.3033008588992061
 30
0.0
 11
1200.0
 21
340.3033008588992061
 31
0.0
  0
LINE
  5
107
100
AcDbEntity
  8
0
 62
256
370
-1
 48
1.0
  6
ByLayer
100
AcDbLine
 10
1280.0
 20
500.3033008588992061
 30
0.0
 11
1200.0
 21
500.3033008588992061
 31
0.0
  0
LINE
  5
108
100
AcDbEntity
  8
0
 62
256
370
-1
 48
1.0
  6
ByLayer
100
AcDbLine
 10
1280.0
 20
189.0330085889910947
 30
0.0
 11
1200.0
 21
189.0330085889910947
 31
0.0
  0
LINE
  5
109
100
AcDbEntity
  8
0
 62
256
370
-1
 48
1.0
  6
ByLayer
100
AcDbLine
 10
920.0
 20
189.0330085889911516
 30
0.0
 11
840.0
 21
189.0330085889911516
 31
0.0
  0
LINE
  5
10A
100
AcDbEntity
  8
0
 62
256
370
-1
 48
1.0
  6
ByLayer
100
AcDbLine
 10
1280.0
 20
189.0330085889910947
 30
0.0
 11
1200.0
 21
189.0330085889910947
 31
0.0
  0
LINE
  5
10B
100
AcDbEntity
  8
0
 62
256
370
-1
 48
1.0
  6
ByLayer
100
AcDbLine
 10
920.0
 20
340.3033008588992061
 30
0.0
 11
840.0
 21
340.3033008588992061
 31
0.0
  0
LINE
  5
10C
100
AcDbEntity
  8
0
 62
256
370
-1
 48
1.0
  6
ByLayer
100
AcDbLine
 10
1280.0
 20
340.3033008588992061
 30
0.0
 11
1200.0
 21
340.3033008588992061
 31
0.0
  0
LINE
  5
10D
100
AcDbEntity
  8
0
 62
256
370
-1
 48
1.0
  6
ByLayer
100
AcDbLine
 10
920.0
 20
500.3033008588992061
 30
0.0
 11
840.0
 21
500.3033008588992061
 31
0.0
  0
LINE
  5
10E
100
AcDbEntity
  8
0
 62
256
370
-1
 48
1.0
  6
ByLayer
100
AcDbLine
 10
920.0
 20
340.3033008588992061
 30
0.0
 11
840.0
 21
340.3033008588992061
 31
0.0
  0
LINE
  5
10F
100
AcDbEntity
  8
0
 62
256
370
-1
 48
1.0
  6
ByLayer
100
AcDbLine
 10
920.0
 20
189.0330085889911516
 30
0.0
 11
840.0
 21
189.0330085889911516
 31
0.0
  0
LINE
  5
110
100
AcDbEntity
  8
0
 62
256
370
-1
 48
1.0
  6
ByLayer
100
AcDbLine
 10
1280.0
 20
500.3033008588992061
 30
0.0
 11
1200.0
 21
500.3033008588992061
 31
0.0
  0
LINE
  5
111
100
AcDbEntity
  8
0
 62
256
370
-1
 48
1.0
  6
ByLayer
100
AcDbLine
 10
1960.0
 20
189.0330085889909242
 30
0.0
 11
1880.0
 21
189.0330085889909242
 31
0.0
  0
LINE
  5
112
100
AcDbEntity
  8
0
 62
256
370
-1
 48
1.0
  6
ByLayer
100
AcDbLine
 10
1960.0
 20
340.3033008588990924
 30
0.0
 11
1880.0
 21
340.3033008588990924
 31
0.0
  0
LINE
  5
113
100
AcDbEntity
  8
0
 62
256
370
-1
 48
1.0
  6
ByLayer
100
AcDbLine
 10
1600.0
 20
189.0330085889909242
 30
0.0
 11
1520.0
 21
189.0330085889909242
 31
0.0
  0
LINE
  5
114
100
AcDbEntity
  8
0
 62
256
370
-1
 48
1.0
  6
ByLayer
100
AcDbLine
 10
1600.0
 20
340.3033008588990924
 30
0.0
 11
1520.0
 21
340.3033008588990924
 31
0.0
  0
LINE
  5
115
100
AcDbEntity
  8
0
 62
256
370
-1
 48
1.0
  6
ByLayer
100
AcDbLine
 10
1960.0
 20
500.3033008588990924
 30
0.0
 11
1880.0
 21
500.3033008588990924
 31
0.0
  0
LINE
  5
116
100
AcDbEntity
  8
0
 62
256
370
-1
 48
1.0
  6
ByLayer
100
AcDbLine
 10
620.0
 20
500.3033008588990924
 30
0.0
 11
540.0
 21
500.3033008588990924
 31
0.0
  0
LINE
  5
117
100
AcDbEntity
  8
0
 62
256
370
-1
 48
1.0
  6
ByLayer
100
AcDbLine
 10
680.0
 20
420.3033008588992061
 30
0.0
 11
680.0
 21
500.3033008588992061
 31
0.0
  0
LINE
  5
118
100
AcDbEntity
  8
0
 62
256
370
-1
 48
1.0
  6
ByLayer
100
AcDbLine
 10
260.0
 20
189.0330085889910379
 30
0.0
 11
180.0
 21
189.0330085889910379
 31
0.0
  0
LINE
  5
119
100
AcDbEntity
  8
0
 62
256
370
-1
 48
1.0
  6
ByLayer
100
AcDbLine
 10
620.0
 20
340.3033008588990924
 30
0.0
 11
540.0
 21
340.3033008588990924
 31
0.0
  0
LINE
  5
11A
100
AcDbEntity
  8
0
 62
256
370
-1
 48
1.0
  6
ByLayer
100
AcDbLine
 10
260.0
 20
340.3033008588990924
 30
0.0
 11
180.0
 21
340.3033008588990924
 31
0.0
  0
LINE
  5
11B
100
AcDbEntity
  8
0
 62
256
370
-1
 48
1.0
  6
ByLayer
100
AcDbLine
 10
260.0
 20
340.3033008588990924
 30
0.0
 11
180.0
 21
340.3033008588990924
 31
0.0
  0
LINE
  5
11C
100
AcDbEntity
  8
0
 62
256
370
-1
 48
1.0
  6
ByLayer
100
AcDbLine
 10
260.0
 20
500.3033008588990924
 30
0.0
 11
180.0
 21
500.3033008588990924
 31
0.0
  0
LINE
  5
11D
100
AcDbEntity
  8
0
 62
256
370
-1
 48
1.0
  6
ByLayer
100
AcDbLine
 10
620.0
 20
189.033008588990981
 30
0.0
 11
540.0
 21
189.033008588990981
 31
0.0
  0
LINE
  5
11E
100
AcDbEntity
  8
0
 62
256
370
-1
 48
1.0
  6
ByLayer
100
AcDbLine
 10
620.0
 20
189.033008588990981
 30
0.0
 11
540.0
 21
189.033008588990981
 31
0.0
  0
LINE
  5
11F
100
AcDbEntity
  8
0
 62
256
370
-1
 48
1.0
  6
ByLayer
100
AcDbLine
 10
260.0
 20
189.0330085889910379
 30
0.0
 11
180.0
 21
189.0330085889910379
 31
0.0
  0
LINE
  5
120
100
AcDbEntity
  8
0
 62
256
370
-1
 48
1.0
  6
ByLayer
100
AcDbLine
 10
135.0999999999999091
 20
659.6783008588990924
 30
0.0
 11
135.0999999999999091
 21
739.6783008588990924
 31
0.0
  0
LINE
  5
121
100
AcDbEntity
  8
0
 62
256
370
-1
 48
1.0
  6
ByLayer
100
AcDbLine
 10
620.0
 20
500.3033008588990924
 30
0.0
 11
540.0
 21
500.3033008588990924
 31
0.0
  0
LINE
  5
122
100
AcDbEntity
  8
0
 62
256
370
-1
 48
1.0
  6
ByLayer
100
AcDbLine
 10
620.0
 20
800.3033008588990924
 30
0.0
 11
540.0
 21
800.3033008588990924
 31
0.0
  0
LINE
  5
123
100
AcDbEntity
  8
0
 62
256
370
-1
 48
1.0
  6
ByLayer
100
AcDbLine
 10
620.0
 20
340.3033008588990924
 30
0.0
 11
540.0
 21
340.3033008588990924
 31
0.0
  0
LINE
  5
124
100
AcDbEntity
  8
0
 62
256
370
-1
 48
1.0
  6
ByLayer
100
AcDbLine
 10
1960.0
 20
500.3033008588990924
 30
0.0
 11
1880.0
 21
500.3033008588990924
 31
0.0
  0
LINE
  5
125
100
AcDbEntity
  8
0
 62
256
370
-1
 48
1.0
  6
ByLayer
100
AcDbLine
 10
1600.0
 20
500.3033008588990924
 30
0.0
 11
1520.0
 21
500.3033008588990924
 31
0.0
  0
LINE
  5
126
100
AcDbEntity
  8
0
 62
256
370
-1
 48
1.0
  6
ByLayer
100
AcDbLine
 10
1600.0
 20
340.3033008588990924
 30
0.0
 11
1520.0
 21
340.3033008588990924
 31
0.0
  0
LINE
  5
127
100
AcDbEntity
  8
0
 62
256
370
-1
 48
1.0
  6
ByLayer
100
AcDbLine
 10
1960.0
 20
340.3033008588990924
 30
0.0
 11
1880.0
 21
340.3033008588990924
 31
0.0
  0
LINE
  5
128
100
AcDbEntity
  8
0
 62
256
370
-1
 48
1.0
  6
ByLayer
100
AcDbLine
 10
1600.0
 20
189.0330085889909242
 30
0.0
 11
1520.0
 21
189.0330085889909242
 31
0.0
  0
LINE
  5
129
100
AcDbEntity
  8
0
 62
256
370
-1
 48
1.0
  6
ByLayer
100
AcDbLine
 10
1960.0
 20
189.0330085889909242
 30
0.0
 11
1880.0
 21
189.0330085889909242
 31
0.0
  0
LINE
  5
12A
100
AcDbEntity
  8
0
 62
256
370
-1
 48
1.0
  6
ByLayer
100
AcDbLine
 10
1440.0
 20
279.6783008588990924
 30
0.0
 11
1425.0000000000002274
 21
279.6783008588990924
 31
0.0
  0
LINE
  5
12B
100
AcDbEntity
  8
0
 62
256
370
-1
 48
1.0
  6
ByLayer
100
AcDbLine
 10
1440.0
 20
500.0
 30
0.0
 11
1425.0000000000002274
 21
500.0
 31
0.0
  0
LINE
  5
12C
100
AcDbEntity
  8
0
 62
256
370
-1
 48
1.0
  6
ByLayer
100
AcDbLine
 10
1439.9999999999997726
 20
739.6783008588990924
 30
0.0
 11
1425.0
 21
739.6783008588990924
 31
0.0
  0
LINE
  5
12D
100
AcDbEntity
  8
0
 62
256
370
-1
 48
1.0
  6
ByLayer
100
AcDbLine
 10
135.0999999999999091
 20
500.3033008588990924
 30
0.0
 11
120.0
 21
500.3033008588990924
 31
0.0
  0
LINE
  5
12E
100
AcDbEntity
  8
0
 62
256
370
-1
 48
1.0
  6
ByLayer
100
AcDbLine
 10
180.0
 20
800.3033008588990924
 30
0.0
 11
180.0
 21
785.2033008588991834
 31
0.0
  0
LINE
  5
12F
100
AcDbEntity
  8
0
 62
256
370
-1
 48
1.0
  6
ByLayer
100
AcDbLine
 10
1439.9999999999997726
 20
739.6783008588990924
 30
0.0
 11
1439.9999999999997726
 21
739.6783008588990924
 31
0.0
  0
LINE
  5
130
100
AcDbEntity
  8
0
 62
256
370
-1
 48
1.0
  6
ByLayer
100
AcDbLine
 10
540.0
 20
800.3033008588990924
 30
0.0
 11
540.0
 21
785.2033008588991834
 31
0.0
  0
LINE
  5
131
100
AcDbEntity
  8
0
 62
256
370
-1
 48
1.0
  6
ByLayer
100
AcDbLine
 10
135.0999999999999091
 20
279.6783008588990924
 30
0.0
 11
120.0
 21
279.6783008588990924
 31
0.0
  0
LINE
  5
132
100
AcDbEntity
  8
0
 62
256
370
-1
 48
1.0
  6
ByLayer
100
AcDbLine
 10
1439.9999999999997726
 20
739.6783008588990924
 30
0.0
 11
1439.9999999999997726
 21
739.6783008588990924
 31
0.0
  0
LINE
  5
133
100
AcDbEntity
  8
0
 62
256
370
-1
 48
1.0
  6
ByLayer
100
AcDbLine
 10
680.0
 20
500.3033008588992061
 30
0.0
 11
664.9000000000000909
 21
500.3033008588992061
 31
0.0
  0
LINE
  5
134
100
AcDbEntity
  8
0
 62
256
370
-1
 48
1.0
  6
ByLayer
100
AcDbLine
 10
680.0
 20
279.6783008588992061
 30
0.0
 11
664.9000000000000909
 21
279.6783008588992061
 31
0.0
  0
LINE
  5
135
100
AcDbEntity
  8
0
 62
256
370
-1
 48
1.0
  6
ByLayer
100
AcDbLine
 10
135.0999999999999091
 20
739.6783008588990924
 30
0.0
 11
120.0
 21
739.6783008588990924
 31
0.0
  0
LINE
  5
136
100
AcDbEntity
  8
0
 62
256
370
-1
 48
1.0
  6
ByLayer
100
AcDbLine
 10
680.0
 20
739.6783008588992061
 30
0.0
 11
664.9000000000000909
 21
739.6783008588992061
 31
0.0
  0
LINE
  5
137
100
AcDbEntity
  8
0
 62
256
370
-1
 48
1.0
  6
ByLayer
100
AcDbLine
 10
540.0
 20
500.3033008588990924
 30
0.0
 11
540.0
 21
485.2033008588990697
 31
0.0
  0
LINE
  5
138
100
AcDbEntity
  8
0
 62
256
370
-1
 48
1.0
  6
ByLayer
100
AcDbLine
 10
180.0
 20
189.0330085889910379
 30
0.0
 11
180.0
 21
173.9330085889910151
 31
0.0
  0
LINE
  5
139
100
AcDbEntity
  8
0
 62
256
370
-1
 48
1.0
  6
ByLayer
100
AcDbLine
 10
180.0
 20
500.3033008588990924
 30
0.0
 11
180.0
 21
485.2033008588990697
 31
0.0
  0
LINE
  5
13A
100
AcDbEntity
  8
0
 62
256
370
-1
 48
1.0
  6
ByLayer
100
AcDbLine
 10
180.0
 20
340.3033008588990924
 30
0.0
 11
180.0
 21
325.2033008588990697
 31
0.0
  0
LINE
  5
13B
100
AcDbEntity
  8
0
 62
256
370
-1
 48
1.0
  6
ByLayer
100
AcDbLine
 10
540.0
 20
340.3033008588990924
 30
0.0
 11
540.0
 21
325.2033008588990697
 31
0.0
  0
LINE
  5
13C
100
AcDbEntity
  8
0
 62
256
370
-1
 48
1.0
  6
ByLayer
100
AcDbLine
 10
540.0
 20
189.033008588990981
 30
0.0
 11
540.0
 21
173.9330085889909583
 31
0.0
  0
LINE
  5
13D
100
AcDbEntity
  8
0
 62
256
370
-1
 48
1.0
  6
ByLayer
100
AcDbLine
 10
1340.0
 20
739.6783008588993198
 30
0.0
 11
1324.9000000000000909
 21
739.6783008588993198
 31
0.0
  0
LINE
  5
13E
100
AcDbEntity
  8
0
 62
256
370
-1
 48
1.0
  6
ByLayer
100
AcDbLine
 10
1340.0
 20
500.3033008588993198
 30
0.0
 11
1324.9000000000000909
 21
500.3033008588993198
 31
0.0
  0
LINE
  5
13F
100
AcDbEntity
  8
0
 62
256
370
-1
 48
1.0
  6
ByLayer
100
AcDbLine
 10
1340.0
 20
279.6783008588993198
 30
0.0
 11
1324.9000000000000909
 21
279.6783008588993198
 31
0.0
  0
LINE
  5
140
100
AcDbEntity
  8
0
 62
256
370
-1
 48
1.0
  6
ByLayer
100
AcDbLine
 10
1200.0
 20
800.3033008588990924
 30
0.0
 11
1200.0
 21
785.2033008588991834
 31
0.0
  0
LINE
  5
141
100
AcDbEntity
  8
0
 62
256
370
-1
 48
1.0
  6
ByLayer
100
AcDbLine
 10
795.0999999999999091
 20
279.6783008588992061
 30
0.0
 11
780.0
 21
279.6783008588992061
 31
0.0
  0
LINE
  5
142
100
AcDbEntity
  8
0
 62
256
370
-1
 48
1.0
  6
ByLayer
100
AcDbLine
 10
840.0
 20
800.3033008588990924
 30
0.0
 11
840.0
 21
785.2033008588991834
 31
0.0
  0
LINE
  5
143
100
AcDbEntity
  8
0
 62
256
370
-1
 48
1.0
  6
ByLayer
100
AcDbLine
 10
795.0999999999999091
 20
500.3033008588992061
 30
0.0
 11
780.0
 21
500.3033008588992061
 31
0.0
  0
LINE
  5
144
100
AcDbEntity
  8
0
 62
256
370
-1
 48
1.0
  6
ByLayer
100
AcDbLine
 10
1959.9999999999997726
 20
1105.4834957055040832
 30
0.0
 11
1959.9999999999997726
 21
1090.3834957055039467
 31
0.0
  0
LINE
  5
145
100
AcDbEntity
  8
0
 62
256
370
-1
 48
1.0
  6
ByLayer
100
AcDbLine
 10
1589.9999999999997726
 20
1105.4834957055043105
 30
0.0
 11
1590.0000000000002274
 21
1105.4834957055043105
 31
0.0
  0
LINE
  5
146
100
AcDbEntity
  8
0
 62
256
370
-1
 48
1.0
  6
ByLayer
100
AcDbLine
 10
1880.0
 20
800.3033008588990924
 30
0.0
 11
1880.0
 21
785.2033008588991834
 31
0.0
  0
LINE
  5
147
100
AcDbEntity
  8
0
 62
256
370
-1
 48
1.0
  6
ByLayer
100
AcDbLine
 10
1599.9999999999997726
 20
1105.4834957055045379
 30
0.0
 11
1599.9999999999997726
 21
1090.3834957055037194
 31
0.0
  0
LINE
  5
148
100
AcDbEntity
  8
0
 62
256
370
-1
 48
1.0
  6
ByLayer
100
AcDbLine
 10
2040.0000000000002274
 20
1149.9934907702327109
 30
0.0
 11
2055.1000000000003638
 21
1149.9934907702329383
 31
0.0
  0
LINE
  5
149
100
AcDbEntity
  8
0
 62
256
370
-1
 48
1.0
  6
ByLayer
100
AcDbLine
 10
2040.0000000000002274
 20
1509.9934907702329383
 30
0.0
 11
2055.1000000000003638
 21
1509.9934907702327109
 31
0.0
  0
LINE
  5
14A
100
AcDbEntity
  8
0
 62
256
370
-1
 48
1.0
  6
ByLayer
100
AcDbLine
 10
1440.0
 20
1149.9934907702333931
 30
0.0
 11
1424.9000000000003183
 21
1149.9934907702333931
 31
0.0
  0
LINE
  5
14B
100
AcDbEntity
  8
0
 62
256
370
-1
 48
1.0
  6
ByLayer
100
AcDbLine
 10
1440.0000000000002274
 20
1509.9934907702333931
 30
0.0
 11
1424.8999999999989541
 21
1509.9934907702333931
 31
0.0
  0
LINE
  5
14C
100
AcDbEntity
  8
0
 62
256
370
-1
 48
1.0
  6
ByLayer
100
AcDbLine
 10
1200.0
 20
340.3033008588992061
 30
0.0
 11
1200.0
 21
325.2033008588991834
 31
0.0
  0
LINE
  5
14D
100
AcDbEntity
  8
0
 62
256
370
-1
 48
1.0
  6
ByLayer
100
AcDbLine
 10
1200.0
 20
189.0330085889910947
 30
0.0
 11
1200.0
 21
173.933008588991072
 31
0.0
  0
LINE
  5
14E
100
AcDbEntity
  8
0
 62
256
370
-1
 48
1.0
  6
ByLayer
100
AcDbLine
 10
840.0
 20
500.3033008588992061
 30
0.0
 11
840.0
 21
485.2033008588991834
 31
0.0
  0
LINE
  5
14F
100
AcDbEntity
  8
0
 62
256
370
-1
 48
1.0
  6
ByLayer
100
AcDbLine
 10
840.0
 20
340.3033008588992061
 30
0.0
 11
840.0
 21
325.2033008588991834
 31
0.0
  0
LINE
  5
150
100
AcDbEntity
  8
0
 62
256
370
-1
 48
1.0
  6
ByLayer
100
AcDbLine
 10
1200.0
 20
500.3033008588992061
 30
0.0
 11
1200.0
 21
485.2033008588991834
 31
0.0
  0
LINE
  5
151
100
AcDbEntity
  8
0
 62
256
370
-1
 48
1.0
  6
ByLayer
100
AcDbLine
 10
840.0
 20
189.0330085889911516
 30
0.0
 11
840.0
 21
173.9330085889911288
 31
0.0
  0
LINE
  5
152
100
AcDbEntity
  8
0
 62
256
370
-1
 48
1.0
  6
ByLayer
100
AcDbLine
 10
795.0999999999999091
 20
739.6783008588992061
 30
0.0
 11
780.0
 21
739.6783008588992061
 31
0.0
  0
LINE
  5
153
100
AcDbEntity
  8
0
 62
256
370
-1
 48
1.0
  6
ByLayer
100
AcDbLine
 10
1449.9999999999997726
 20
-160.1216991411008053
 30
0.0
 11
1449.9999999999997726
 21
-160.1216991411008053
 31
0.0
  0
LINE
  5
154
100
AcDbEntity
  8
0
 62
256
370
-1
 48
1.0
  6
ByLayer
100
AcDbLine
 10
1449.9999999999997726
 20
-160.1216991411008053
 30
0.0
 11
1434.9999999999997726
 21
-160.1216991411008053
 31
0.0
  0
LINE
  5
155
100
AcDbEntity
  8
0
 62
256
370
-1
 48
1.0
  6
ByLayer
100
AcDbLine
 10
1449.9999999999997726
 20
-160.1216991411008053
 30
0.0
 11
1449.9999999999997726
 21
-160.1216991411008053
 31
0.0
  0
LINE
  5
156
100
AcDbEntity
  8
0
 62
256
370
-1
 48
1.0
  6
ByLayer
100
AcDbLine
 10
1449.9999999999997726
 20
-620.1216991411006347
 30
0.0
 11
1434.9999999999997726
 21
-620.1216991411008621
 31
0.0
  0
LINE
  5
157
100
AcDbEntity
  8
0
 62
256
370
-1
 48
1.0
  6
ByLayer
100
AcDbLine
 10
1449.9999999999997726
 20
-399.7999999999998977
 30
0.0
 11
1434.9999999999997726
 21
-399.7999999999998977
 31
0.0
  0
LINE
  5
158
100
AcDbEntity
  8
0
 62
256
370
-1
 48
1.0
  6
ByLayer
100
AcDbLine
 10
2049.9999999999995453
 20
-620.1216991411006347
 30
0.0
 11
2065.0
 21
-620.1216991411008621
 31
0.0
  0
LINE
  5
159
100
AcDbEntity
  8
0
 62
256
370
-1
 48
1.0
  6
ByLayer
100
AcDbLine
 10
2050.0
 20
-399.7999999999998977
 30
0.0
 11
2064.9999999999995453
 21
-399.7999999999998977
 31
0.0
  0
LINE
  5
15A
100
AcDbEntity
  8
0
 62
256
370
-1
 48
1.0
  6
ByLayer
100
AcDbLine
 10
2050.0
 20
-160.1216991411008053
 30
0.0
 11
2065.0
 21
-160.1216991411008053
 31
0.0
  0
LINE
  5
15B
100
AcDbEntity
  8
0
 62
256
370
-1
 48
1.0
  6
ByLayer
100
AcDbLine
 10
2050.0
 20
-160.1216991411008053
 30
0.0
 11
2050.0
 21
-160.1216991411008053
 31
0.0
  0
LINE
  5
15C
100
AcDbEntity
  8
0
 62
256
370
-1
 48
1.0
  6
ByLayer
100
AcDbLine
 10
1889.9999999999997726
 20
-710.766991411008803
 30
0.0
 11
1889.9999999999997726
 21
-726.7669914110085756
 31
0.0
  0
LINE
  5
15D
100
AcDbEntity
  8
0
 62
256
370
-1
 48
1.0
  6
ByLayer
100
AcDbLine
 10
2050.0
 20
-160.1216991411008053
 30
0.0
 11
2050.0
 21
-160.1216991411008053
 31
0.0
  0
LINE
  5
15E
100
AcDbEntity
  8
0
 62
256
370
-1
 48
1.0
  6
ByLayer
100
AcDbLine
 10
1529.9999999999997726
 20
-710.7669914110085756
 30
0.0
 11
1529.9999999999997726
 21
-726.7669914110085756
 31
0.0
  0
LINE
  5
15F
100
AcDbEntity
  8
0
 62
256
370
-1
 48
1.0
  6
ByLayer
100
AcDbLine
 10
1889.9999999999997726
 20
-99.4966991411008053
 30
0.0
 11
1889.9999999999997726
 21
-115.4966991411008053
 31
0.0
  0
LINE
  5
160
100
AcDbEntity
  8
0
 62
256
370
-1
 48
1.0
  6
ByLayer
100
AcDbLine
 10
1529.9999999999997726
 20
-99.4966991411008053
 30
0.0
 11
1529.9999999999997726
 21
-115.4966991411008053
 31
0.0
  0
LINE
  5
161
100
AcDbEntity
  8
0
 62
256
370
-1
 48
1.0
  6
ByLayer
100
AcDbLine
 10
1880.0
 20
189.0330085889909242
 30
0.0
 11
1880.0
 21
173.9330085889910151
 31
0.0
  0
LINE
  5
162
100
AcDbEntity
  8
0
 62
256
370
-1
 48
1.0
  6
ByLayer
100
AcDbLine
 10
600.0000000000005684
 20
1504.5099950647290825
 30
0.0
 11
584.8999999999992951
 21
1504.5099950647290825
 31
0.0
  0
LINE
  5
163
100
AcDbEntity
  8
0
 62
256
370
-1
 48
1.0
  6
ByLayer
100
AcDbLine
 10
1880.0
 20
340.3033008588990924
 30
0.0
 11
1880.0
 21
325.2033008588991834
 31
0.0
  0
LINE
  5
164
100
AcDbEntity
  8
0
 62
256
370
-1
 48
1.0
  6
ByLayer
100
AcDbLine
 10
749.9999999999998863
 20
1629.019990129458165
 30
0.0
 11
750.0000000000005684
 21
1629.019990129458165
 31
0.0
  0
LINE
  5
165
100
AcDbEntity
  8
0
 62
256
370
-1
 48
1.0
  6
ByLayer
100
AcDbLine
 10
1520.0
 20
189.0330085889909242
 30
0.0
 11
1520.0
 21
173.9330085889910151
 31
0.0
  0
LINE
  5
166
100
AcDbEntity
  8
0
 62
256
370
-1
 48
1.0
  6
ByLayer
100
AcDbLine
 10
1520.0
 20
340.3033008588990924
 30
0.0
 11
1520.0
 21
325.2033008588991834
 31
0.0
  0
LINE
  5
167
100
AcDbEntity
  8
0
 62
256
370
-1
 48
1.0
  6
ByLayer
100
AcDbLine
 10
1880.0
 20
500.3033008588990924
 30
0.0
 11
1880.0
 21
485.2033008588991834
 31
0.0
  0
LINE
  5
168
100
AcDbEntity
  8
0
 62
256
370
-1
 48
1.0
  6
ByLayer
100
AcDbLine
 10
2040.0
 20
739.6783008588990924
 30
0.0
 11
2040.0
 21
739.6783008588990924
 31
0.0
  0
LINE
  5
169
100
AcDbEntity
  8
0
 62
256
370
-1
 48
1.0
  6
ByLayer
100
AcDbLine
 10
2040.0
 20
739.6783008588990924
 30
0.0
 11
2055.0
 21
739.6783008588990924
 31
0.0
  0
LINE
  5
16A
100
AcDbEntity
  8
0
 62
256
370
-1
 48
1.0
  6
ByLayer
100
AcDbLine
 10
2040.0
 20
739.6783008588990924
 30
0.0
 11
2040.0
 21
739.6783008588990924
 31
0.0
  0
LINE
  5
16B
100
AcDbEntity
  8
0
 62
256
370
-1
 48
1.0
  6
ByLayer
100
AcDbLine
 10
2039.9999999999995453
 20
279.6783008588990924
 30
0.0
 11
2055.0
 21
279.6783008588990924
 31
0.0
  0
LINE
  5
16C
100
AcDbEntity
  8
0
 62
256
370
-1
 48
1.0
  6
ByLayer
100
AcDbLine
 10
2040.0
 20
500.0
 30
0.0
 11
2054.9999999999995453
 21
500.0
 31
0.0
  0
LINE
  5
16D
100
AcDbEntity
  8
0
 62
256
370
-1
 48
1.0
  6
ByLayer
100
AcDbLine
 10
1200.0000000000004547
 20
1504.5099950647286278
 30
0.0
 11
1215.1000000000008185
 21
1504.5099950647284004
 31
0.0
  0
LINE
  5
16E
100
AcDbEntity
  8
0
 62
256
370
-1
 48
1.0
  6
ByLayer
100
AcDbLine
 10
600.0000000000003411
 20
1144.5099950647290825
 30
0.0
 11
584.9000000000006594
 21
1144.5099950647290825
 31
0.0
  0
LINE
  5
16F
100
AcDbEntity
  8
0
 62
256
370
-1
 48
1.0
  6
ByLayer
100
AcDbLine
 10
760.0000000000001137
 20
1100.0000000000002274
 30
0.0
 11
760.0000000000001137
 21
1084.8999999999994088
 31
0.0
  0
LINE
  5
170
100
AcDbEntity
  8
0
 62
256
370
-1
 48
1.0
  6
ByLayer
100
AcDbLine
 10
1200.0000000000004547
 20
1144.5099950647284004
 30
0.0
 11
1215.1000000000008185
 21
1144.5099950647286278
 31
0.0
  0
LINE
  5
171
100
AcDbEntity
  8
0
 62
256
370
-1
 48
1.0
  6
ByLayer
100
AcDbLine
 10
1120.0
 20
1099.9999999999997726
 30
0.0
 11
1120.0
 21
1084.8999999999996362
 31
0.0
  0
LINE
  5
172
100
AcDbEntity
  8
0
 62
256
370
-1
 48
1.0
  6
ByLayer
100
AcDbLine
 10
750.0000000000001137
 20
1100.0
 30
0.0
 11
750.0000000000005684
 21
1100.0
 31
0.0
  0
LINE
  5
173
100
AcDbEntity
  8
0
 62
256
370
-1
 48
1.0
  6
ByLayer
100
AcDbLine
 10
1589.9999999999997726
 20
1635.2834957055044924
 30
0.0
 11
1590.0000000000004547
 21
1635.2834957055044924
 31
0.0
  0
LINE
  5
174
100
AcDbEntity
  8
0
 62
256
370
-1
 48
1.0
  6
ByLayer
100
AcDbLine
 10
1960.0
 20
1635.2834957055047198
 30
0.0
 11
1959.9999999999997726
 21
1650.3834957055050836
 31
0.0
  0
LINE
  5
175
100
AcDbEntity
  8
0
 62
256
370
-1
 48
1.0
  6
ByLayer
100
AcDbLine
 10
1600.0
 20
1635.2834957055042651
 30
0.0
 11
1600.0
 21
1650.3834957055050836
 31
0.0
  0
LINE
  5
176
100
AcDbEntity
  8
0
 62
256
370
-1
 48
1.0
  6
ByLayer
100
AcDbLine
 10
1520.0
 20
800.0
 30
0.0
 11
1520.0
 21
784.9000000000000909
 31
0.0
  0
LINE
  5
177
100
AcDbEntity
  8
0
 62
256
370
-1
 48
1.0
  6
ByLayer
100
AcDbLine
 10
1520.0
 20
500.3033008588990924
 30
0.0
 11
1520.0
 21
485.2033008588991834
 31
0.0
  0
LINE
  5
178
100
AcDbEntity
  8
0
 62
256
370
-1
 48
1.0
  6
ByLayer
100
AcDbLine
 10
1425.0000000000002274
 20
279.6783008588990924
 30
0.0
 11
1425.0000000000002274
 21
199.6783008588990924
 31
0.0
  0
LINE
  5
179
100
AcDbEntity
  8
0
 62
256
370
-1
 48
1.0
  6
ByLayer
100
AcDbLine
 10
540.0
 20
785.2033008588991834
 30
0.0
 11
620.0
 21
785.2033008588991834
 31
0.0
  0
LINE
  5
17A
100
AcDbEntity
  8
0
 62
256
370
-1
 48
1.0
  6
ByLayer
100
AcDbLine
 10
180.0
 20
785.2033008588991834
 30
0.0
 11
260.0
 21
785.2033008588991834
 31
0.0
  0
LINE
  5
17B
100
AcDbEntity
  8
0
 62
256
370
-1
 48
1.0
  6
ByLayer
100
AcDbLine
 10
664.9000000000000909
 20
739.6783008588992061
 30
0.0
 11
664.9000000000000909
 21
659.6783008588992061
 31
0.0
  0
LINE
  5
17C
100
AcDbEntity
  8
0
 62
256
370
-1
 48
1.0
  6
ByLayer
100
AcDbLine
 10
664.9000000000000909
 20
279.6783008588992061
 30
0.0
 11
664.9000000000000909
 21
199.6783008588992061
 31
0.0
  0
LINE
  5
17D
100
AcDbEntity
  8
0
 62
256
370
-1
 48
1.0
  6
ByLayer
100
AcDbLine
 10
1425.0000000000002274
 20
500.0
 30
0.0
 11
1425.0000000000002274
 21
420.0
 31
0.0
  0
LINE
  5
17E
100
AcDbEntity
  8
0
 62
256
370
-1
 48
1.0
  6
ByLayer
100
AcDbLine
 10
120.0
 20
279.6783008588990924
 30
0.0
 11
120.0
 21
199.6783008588990924
 31
0.0
  0
LINE
  5
17F
100
AcDbEntity
  8
0
 62
256
370
-1
 48
1.0
  6
ByLayer
100
AcDbLine
 10
664.9000000000000909
 20
500.3033008588992061
 30
0.0
 11
664.9000000000000909
 21
420.3033008588992061
 31
0.0
  0
LINE
  5
180
100
AcDbEntity
  8
0
 62
256
370
-1
 48
1.0
  6
ByLayer
100
AcDbLine
 10
120.0
 20
500.3033008588990924
 30
0.0
 11
120.0
 21
420.3033008588990924
 31
0.0
  0
LINE
  5
181
100
AcDbEntity
  8
0
 62
256
370
-1
 48
1.0
  6
ByLayer
100
AcDbLine
 10
120.0
 20
739.6783008588990924
 30
0.0
 11
120.0
 21
659.6783008588990924
 31
0.0
  0
LINE
  5
182
100
AcDbEntity
  8
0
 62
256
370
-1
 48
1.0
  6
ByLayer
100
AcDbLine
 10
540.0
 20
485.2033008588990697
 30
0.0
 11
620.0
 21
485.2033008588990697
 31
0.0
  0
LINE
  5
183
100
AcDbEntity
  8
0
 62
256
370
-1
 48
1.0
  6
ByLayer
100
AcDbLine
 10
180.0
 20
173.9330085889910151
 30
0.0
 11
260.0
 21
173.9330085889910151
 31
0.0
  0
LINE
  5
184
100
AcDbEntity
  8
0
 62
256
370
-1
 48
1.0
  6
ByLayer
100
AcDbLine
 10
540.0
 20
173.9330085889909583
 30
0.0
 11
620.0
 21
173.9330085889909583
 31
0.0
  0
LINE
  5
185
100
AcDbEntity
  8
0
 62
256
370
-1
 48
1.0
  6
ByLayer
100
AcDbLine
 10
180.0
 20
325.2033008588990697
 30
0.0
 11
260.0
 21
325.2033008588990697
 31
0.0
  0
LINE
  5
186
100
AcDbEntity
  8
0
 62
256
370
-1
 48
1.0
  6
ByLayer
100
AcDbLine
 10
540.0
 20
325.2033008588990697
 30
0.0
 11
620.0
 21
325.2033008588990697
 31
0.0
  0
LINE
  5
187
100
AcDbEntity
  8
0
 62
256
370
-1
 48
1.0
  6
ByLayer
100
AcDbLine
 10
180.0
 20
485.2033008588990697
 30
0.0
 11
260.0
 21
485.2033008588990697
 31
0.0
  0
LINE
  5
188
100
AcDbEntity
  8
0
 62
256
370
-1
 48
1.0
  6
ByLayer
100
AcDbLine
 10
1324.9000000000000909
 20
500.3033008588993198
 30
0.0
 11
1324.9000000000000909
 21
420.3033008588993198
 31
0.0
  0
LINE
  5
189
100
AcDbEntity
  8
0
 62
256
370
-1
 48
1.0
  6
ByLayer
100
AcDbLine
 10
1324.9000000000000909
 20
739.6783008588993198
 30
0.0
 11
1324.9000000000000909
 21
659.6783008588993198
 31
0.0
  0
LINE
  5
18A
100
AcDbEntity
  8
0
 62
256
370
-1
 48
1.0
  6
ByLayer
100
AcDbLine
 10
1324.9000000000000909
 20
279.6783008588993198
 30
0.0
 11
1324.9000000000000909
 21
199.6783008588993198
 31
0.0
  0
LINE
  5
18B
100
AcDbEntity
  8
0
 62
256
370
-1
 48
1.0
  6
ByLayer
100
AcDbLine
 10
1200.0
 20
785.2033008588991834
 30
0.0
 11
1280.0
 21
785.2033008588991834
 31
0.0
  0
LINE
  5
18C
100
AcDbEntity
  8
0
 62
256
370
-1
 48
1.0
  6
ByLayer
100
AcDbLine
 10
840.0
 20
785.2033008588991834
 30
0.0
 11
920.0
 21
785.2033008588991834
 31
0.0
  0
LINE
  5
18D
100
AcDbEntity
  8
0
 62
256
370
-1
 48
1.0
  6
ByLayer
100
AcDbLine
 10
1880.0
 20
785.2033008588991834
 30
0.0
 11
1960.0
 21
785.2033008588991834
 31
0.0
  0
LINE
  5
18E
100
AcDbEntity
  8
0
 62
256
370
-1
 48
1.0
  6
ByLayer
100
AcDbLine
 10
1200.0
 20
325.2033008588991834
 30
0.0
 11
1280.0
 21
325.2033008588991834
 31
0.0
  0
LINE
  5
18F
100
AcDbEntity
  8
0
 62
256
370
-1
 48
1.0
  6
ByLayer
100
AcDbLine
 10
840.0
 20
485.2033008588991834
 30
0.0
 11
920.0
 21
485.2033008588991834
 31
0.0
  0
LINE
  5
190
100
AcDbEntity
  8
0
 62
256
370
-1
 48
1.0
  6
ByLayer
100
AcDbLine
 10
1200.0
 20
173.933008588991072
 30
0.0
 11
1280.0
 21
173.933008588991072
 31
0.0
  0
LINE
  5
191
100
AcDbEntity
  8
0
 62
256
370
-1
 48
1.0
  6
ByLayer
100
AcDbLine
 10
840.0
 20
325.2033008588991834
 30
0.0
 11
920.0
 21
325.2033008588991834
 31
0.0
  0
LINE
  5
192
100
AcDbEntity
  8
0
 62
256
370
-1
 48
1.0
  6
ByLayer
100
AcDbLine
 10
1200.0
 20
485.2033008588991834
 30
0.0
 11
1280.0
 21
485.2033008588991834
 31
0.0
  0
LINE
  5
193
100
AcDbEntity
  8
0
 62
256
370
-1
 48
1.0
  6
ByLayer
100
AcDbLine
 10
840.0
 20
173.9330085889911288
 30
0.0
 11
920.0
 21
173.9330085889911288
 31
0.0
  0
LINE
  5
194
100
AcDbEntity
  8
0
 62
256
370
-1
 48
1.0
  6
ByLayer
100
AcDbLine
 10
780.0
 20
500.3033008588992061
 30
0.0
 11
780.0
 21
420.3033008588992061
 31
0.0
  0
LINE
  5
195
100
AcDbEntity
  8
0
 62
256
370
-1
 48
1.0
  6
ByLayer
100
AcDbLine
 10
780.0
 20
739.6783008588992061
 30
0.0
 11
780.0
 21
659.6783008588992061
 31
0.0
  0
LINE
  5
196
100
AcDbEntity
  8
0
 62
256
370
-1
 48
1.0
  6
ByLayer
100
AcDbLine
 10
2065.0
 20
-620.1216991411008621
 30
0.0
 11
2064.9999999999990905
 21
-700.1216991411008621
 31
0.0
  0
LINE
  5
197
100
AcDbEntity
  8
0
 62
256
370
-1
 48
1.0
  6
ByLayer
100
AcDbLine
 10
1434.9999999999997726
 20
-620.1216991411008621
 30
0.0
 11
1434.9999999999997726
 21
-700.1216991411008621
 31
0.0
  0
LINE
  5
198
100
AcDbEntity
  8
0
 62
256
370
-1
 48
1.0
  6
ByLayer
100
AcDbLine
 10
2064.9999999999995453
 20
-399.7999999999998977
 30
0.0
 11
2064.9999999999995453
 21
-479.7999999999998977
 31
0.0
  0
LINE
  5
199
100
AcDbEntity
  8
0
 62
256
370
-1
 48
1.0
  6
ByLayer
100
AcDbLine
 10
2065.0
 20
-160.1216991411008053
 30
0.0
 11
2065.0
 21
-240.1216991411008053
 31
0.0
  0
LINE
  5
19A
100
AcDbEntity
  8
0
 62
256
370
-1
 48
1.0
  6
ByLayer
100
AcDbLine
 10
1889.9999999999997726
 20
-726.7669914110085756
 30
0.0
 11
1969.9999999999997726
 21
-726.766991411008803
 31
0.0
  0
LINE
  5
19B
100
AcDbEntity
  8
0
 62
256
370
-1
 48
1.0
  6
ByLayer
100
AcDbLine
 10
1529.9999999999997726
 20
-726.7669914110085756
 30
0.0
 11
1609.9999999999997726
 21
-726.7669914110085756
 31
0.0
  0
LINE
  5
19C
100
AcDbEntity
  8
0
 62
256
370
-1
 48
1.0
  6
ByLayer
100
AcDbLine
 10
1434.9999999999997726
 20
-160.1216991411008053
 30
0.0
 11
1434.9999999999997726
 21
-240.1216991411008053
 31
0.0
  0
LINE
  5
19D
100
AcDbEntity
  8
0
 62
256
370
-1
 48
1.0
  6
ByLayer
100
AcDbLine
 10
1959.9999999999997726
 20
1090.3834957055039467
 30
0.0
 11
1879.9999999999997726
 21
1090.3834957055039467
 31
0.0
  0
LINE
  5
19E
100
AcDbEntity
  8
0
 62
256
370
-1
 48
1.0
  6
ByLayer
100
AcDbLine
 10
1599.9999999999997726
 20
1090.3834957055037194
 30
0.0
 11
1520.0000000000002274
 21
1090.3834957055032646
 31
0.0
  0
LINE
  5
19F
100
AcDbEntity
  8
0
 62
256
370
-1
 48
1.0
  6
ByLayer
100
AcDbLine
 10
2055.1000000000003638
 20
1149.9934907702329383
 30
0.0
 11
2055.1000000000003638
 21
1229.9934907702324836
 31
0.0
  0
LINE
  5
1A0
100
AcDbEntity
  8
0
 62
256
370
-1
 48
1.0
  6
ByLayer
100
AcDbLine
 10
2055.1000000000003638
 20
1509.9934907702327109
 30
0.0
 11
2055.1000000000003638
 21
1589.9934907702329383
 31
0.0
  0
LINE
  5
1A1
100
AcDbEntity
  8
0
 62
256
370
-1
 48
1.0
  6
ByLayer
100
AcDbLine
 10
1424.8999999999989541
 20
1509.9934907702333931
 30
0.0
 11
1424.8999999999998636
 21
1589.9934907702333931
 31
0.0
  0
LINE
  5
1A2
100
AcDbEntity
  8
0
 62
256
370
-1
 48
1.0
  6
ByLayer
100
AcDbLine
 10
1424.9000000000003183
 20
1149.9934907702333931
 30
0.0
 11
1424.9000000000003183
 21
1229.9934907702333931
 31
0.0
  0
LINE
  5
1A3
100
AcDbEntity
  8
0
 62
256
370
-1
 48
1.0
  6
ByLayer
100
AcDbLine
 10
584.8999999999992951
 20
1504.5099950647290825
 30
0.0
 11
584.9000000000002046
 21
1584.5099950647290825
 31
0.0
  0
LINE
  5
1A4
100
AcDbEntity
  8
0
 62
256
370
-1
 48
1.0
  6
ByLayer
100
AcDbLine
 10
584.9000000000006594
 20
1144.5099950647290825
 30
0.0
 11
584.9000000000006594
 21
1224.5099950647290825
 31
0.0
  0
LINE
  5
1A5
100
AcDbEntity
  8
0
 62
256
370
-1
 48
1.0
  6
ByLayer
100
AcDbLine
 10
1215.1000000000008185
 20
1144.5099950647286278
 30
0.0
 11
1215.1000000000008185
 21
1224.509995064728173
 31
0.0
  0
LINE
  5
1A6
100
AcDbEntity
  8
0
 62
256
370
-1
 48
1.0
  6
ByLayer
100
AcDbLine
 10
1880.0
 20
173.9330085889910151
 30
0.0
 11
1960.0
 21
173.9330085889910151
 31
0.0
  0
LINE
  5
1A7
100
AcDbEntity
  8
0
 62
256
370
-1
 48
1.0
  6
ByLayer
100
AcDbLine
 10
1215.1000000000008185
 20
1504.5099950647284004
 30
0.0
 11
1215.1000000000008185
 21
1584.5099950647286278
 31
0.0
  0
LINE
  5
1A8
100
AcDbEntity
  8
0
 62
256
370
-1
 48
1.0
  6
ByLayer
100
AcDbLine
 10
1120.0
 20
1084.8999999999996362
 30
0.0
 11
1040.0
 21
1084.8999999999996362
 31
0.0
  0
LINE
  5
1A9
100
AcDbEntity
  8
0
 62
256
370
-1
 48
1.0
  6
ByLayer
100
AcDbLine
 10
760.0000000000001137
 20
1084.8999999999994088
 30
0.0
 11
680.0000000000005684
 21
1084.8999999999989541
 31
0.0
  0
LINE
  5
1AA
100
AcDbEntity
  8
0
 62
256
370
-1
 48
1.0
  6
ByLayer
100
AcDbLine
 10
780.0
 20
279.6783008588992061
 30
0.0
 11
780.0
 21
199.6783008588992061
 31
0.0
  0
LINE
  5
1AB
100
AcDbEntity
  8
0
 62
256
370
-1
 48
1.0
  6
ByLayer
100
AcDbLine
 10
1880.0
 20
325.2033008588991834
 30
0.0
 11
1960.0
 21
325.2033008588991834
 31
0.0
  0
LINE
  5
1AC
100
AcDbEntity
  8
0
 62
256
370
-1
 48
1.0
  6
ByLayer
100
AcDbLine
 10
1520.0
 20
173.9330085889910151
 30
0.0
 11
1600.0
 21
173.9330085889910151
 31
0.0
  0
LINE
  5
1AD
100
AcDbEntity
  8
0
 62
256
370
-1
 48
1.0
  6
ByLayer
100
AcDbLine
 10
1520.0
 20
325.2033008588991834
 30
0.0
 11
1600.0
 21
325.2033008588991834
 31
0.0
  0
LINE
  5
1AE
100
AcDbEntity
  8
0
 62
256
370
-1
 48
1.0
  6
ByLayer
100
AcDbLine
 10
1880.0
 20
485.2033008588991834
 30
0.0
 11
1960.0
 21
485.2033008588991834
 31
0.0
  0
LINE
  5
1AF
100
AcDbEntity
  8
0
 62
256
370
-1
 48
1.0
  6
ByLayer
100
AcDbLine
 10
1529.9999999999997726
 20
-115.4966991411008053
 30
0.0
 11
1609.9999999999997726
 21
-115.4966991411008053
 31
0.0
  0
LINE
  5
1B0
100
AcDbEntity
  8
0
 62
256
370
-1
 48
1.0
  6
ByLayer
100
AcDbLine
 10
1434.9999999999997726
 20
-399.7999999999998977
 30
0.0
 11
1434.9999999999997726
 21
-479.7999999999998977
 31
0.0
  0
LINE
  5
1B1
100
AcDbEntity
  8
0
 62
256
370
-1
 48
1.0
  6
ByLayer
100
AcDbLine
 10
1889.9999999999997726
 20
-115.4966991411008053
 30
0.0
 11
1969.9999999999997726
 21
-115.4966991411008053
 31
0.0
  0
LINE
  5
1B2
100
AcDbEntity
  8
0
 62
256
370
-1
 48
1.0
  6
ByLayer
100
AcDbLine
 10
2054.9999999999995453
 20
500.0
 30
0.0
 11
2054.9999999999995453
 21
420.0
 31
0.0
  0
LINE
  5
1B3
100
AcDbEntity
  8
0
 62
256
370
-1
 48
1.0
  6
ByLayer
100
AcDbLine
 10
2055.0
 20
739.6783008588990924
 30
0.0
 11
2055.0
 21
659.6783008588990924
 31
0.0
  0
LINE
  5
1B4
100
AcDbEntity
  8
0
 62
256
370
-1
 48
1.0
  6
ByLayer
100
AcDbLine
 10
2055.0
 20
279.6783008588990924
 30
0.0
 11
2054.9999999999990905
 21
199.6783008588990924
 31
0.0
  0
LINE
  5
1B5
100
AcDbEntity
  8
0
 62
256
370
-1
 48
1.0
  6
ByLayer
100
AcDbLine
 10
1600.0
 20
1650.3834957055050836
 30
0.0
 11
1520.0000000000002274
 21
1650.3834957055055384
 31
0.0
  0
LINE
  5
1B6
100
AcDbEntity
  8
0
 62
256
370
-1
 48
1.0
  6
ByLayer
100
AcDbLine
 10
1959.9999999999997726
 20
1650.3834957055050836
 30
0.0
 11
1880.0
 21
1650.3834957055050836
 31
0.0
  0
LINE
  5
1B7
100
AcDbEntity
  8
0
 62
256
370
-1
 48
1.0
  6
ByLayer
100
AcDbLine
 10
1520.0
 20
784.9000000000000909
 30
0.0
 11
1600.0
 21
784.9000000000000909
 31
0.0
  0
LINE
  5
1B8
100
AcDbEntity
  8
0
 62
256
370
-1
 48
1.0
  6
ByLayer
100
AcDbLine
 10
1520.0
 20
485.2033008588991834
 30
0.0
 11
1600.0
 21
485.2033008588991834
 31
0.0
  0
LINE
  5
1B9
100
AcDbEntity
  8
0
 62
256
370
-1
 48
1.0
  6
ByLayer
100
AcDbLine
 10
1425.0
 20
739.6783008588990924
 30
0.0
 11
1425.0
 21
659.6783008588990924
 31
0.0
  0
LINE
  5
1BA
100
AcDbEntity
  8
0
 62
256
370
-1
 48
1.0
  6
ByLayer
100
AcDbLine
 10
1440.0
 20
800.0
 30
0.0
 11
1520.0
 21
800.0
 31
0.0
  0
LINE
  5
1BB
100
AcDbEntity
  8
0
 62
256
370
-1
 48
1.0
  6
ByLayer
100
AcDbLine
 10
1449.9999999999997726
 20
-99.7999999999998977
 30
0.0
 11
1529.9999999999997726
 21
-99.7999999999998977
 31
0.0
  0
LINE
  5
1BC
100
AcDbEntity
  8
0
 62
256
370
-1
 48
1.0
  6
ByLayer
100
AcDbLine
 10
1600.0
 20
800.3033008588990924
 30
0.0
 11
1880.0
 21
800.3033008588990924
 31
0.0
  0
LINE
  5
1BD
100
AcDbEntity
  8
0
 62
256
370
-1
 48
1.0
  6
ByLayer
100
AcDbLine
 10
1609.9999999999997726
 20
-99.4966991411008053
 30
0.0
 11
1889.9999999999997726
 21
-99.4966991411008053
 31
0.0
  0
LINE
  5
1BE
100
AcDbEntity
  8
0
 62
256
370
-1
 48
1.0
  6
ByLayer
100
AcDbLine
 10
1960.0
 20
800.3033008588990924
 30
0.0
 11
2040.0
 21
800.3000000000001819
 31
0.0
  0
LINE
  5
1BF
100
AcDbEntity
  8
0
 62
256
370
-1
 48
1.0
  6
ByLayer
100
AcDbLine
 10
1969.9999999999997726
 20
-99.4966991411008053
 30
0.0
 11
2050.0
 21
-99.4999999999997158
 31
0.0
  0
LINE
  5
1C0
100
AcDbEntity
  8
0
 62
256
370
-1
 48
1.0
  6
ByLayer
100
AcDbLine
 10
2040.0
 20
800.0
 30
0.0
 11
2040.0
 21
800.3000000000001819
 31
0.0
  0
LINE
  5
1C1
100
AcDbEntity
  8
0
 62
256
370
-1
 48
1.0
  6
ByLayer
100
AcDbLine
 10
2050.0
 20
-99.7999999999998977
 30
0.0
 11
2050.0
 21
-99.4999999999997158
 31
0.0
  0
LINE
  5
1C2
100
AcDbEntity
  8
0
 62
256
370
-1
 48
1.0
  6
ByLayer
100
AcDbLine
 10
1489.9999999999997726
 20
-149.7999999999998977
 30
0.0
 11
2009.9999999999997726
 21
-149.7999999999998977
 31
0.0
  0
LINE
  5
1C3
100
AcDbEntity
  8
0
 62
256
370
-1
 48
1.0
  6
ByLayer
100
AcDbLine
 10
2009.9999999999997726
 20
-149.7999999999998977
 30
0.0
 11
2009.9999999999997726
 21
-709.7999999999997272
 31
0.0
  0
LINE
  5
1C4
100
AcDbEntity
  8
0
 62
256
370
-1
 48
1.0
  6
ByLayer
100
AcDbLine
 10
1489.9999999999997726
 20
-709.7999999999997272
 30
0.0
 11
1489.9999999999997726
 21
-149.7999999999998977
 31
0.0
  0
LINE
  5
1C5
100
AcDbEntity
  8
0
 62
256
370
-1
 48
1.0
  6
ByLayer
100
AcDbLine
 10
1609.9999999999997726
 20
-710.7669914110085756
 30
0.0
 11
1889.9999999999997726
 21
-710.766991411008803
 31
0.0
  0
LINE
  5
1C6
100
AcDbEntity
  8
0
 62
256
370
-1
 48
1.0
  6
ByLayer
100
AcDbLine
 10
1529.9999999999997726
 20
-710.7669914110085756
 30
0.0
 11
1489.9999999999997726
 21
-710.7999999999997272
 31
0.0
  0
LINE
  5
1C7
100
AcDbEntity
  8
0
 62
256
370
-1
 48
1.0
  6
ByLayer
100
AcDbLine
 10
1489.9999999999997726
 20
-710.7999999999997272
 30
0.0
 11
1489.9999999999997726
 21
-709.7999999999997272
 31
0.0
  0
LINE
  5
1C8
100
AcDbEntity
  8
0
 62
256
370
-1
 48
1.0
  6
ByLayer
100
AcDbLine
 10
1969.9999999999997726
 20
-710.766991411008803
 30
0.0
 11
2009.9999999999997726
 21
-710.7999999999997272
 31
0.0
  0
LINE
  5
1C9
100
AcDbEntity
  8
0
 62
256
370
-1
 48
1.0
  6
ByLayer
100
AcDbLine
 10
2009.9999999999997726
 20
-710.7999999999997272
 30
0.0
 11
2009.9999999999997726
 21
-709.7999999999997272
 31
0.0
  0
LINE
  5
1CA
100
AcDbEntity
  8
0
 62
256
370
-1
 48
1.0
  6
ByLayer
100
AcDbLine
 10
1520.0000000000002274
 20
1105.4834957055045379
 30
0.0
 11
1440.0
 21
1105.4834957055043105
 31
0.0
  0
LINE
  5
1CB
100
AcDbEntity
  8
0
 62
256
370
-1
 48
1.0
  6
ByLayer
100
AcDbLine
 10
1879.9999999999997726
 20
1105.4834957055040832
 30
0.0
 11
1599.9999999999995453
 21
1105.4834957055043105
 31
0.0
  0
LINE
  5
1CC
100
AcDbEntity
  8
0
 62
256
370
-1
 48
1.0
  6
ByLayer
100
AcDbLine
 10
2040.0000000000002274
 20
1105.4834957055040832
 30
0.0
 11
1959.9999999999995453
 21
1105.4834957055040832
 31
0.0
  0
LINE
  5
1CD
100
AcDbEntity
  8
0
 62
256
370
-1
 48
1.0
  6
ByLayer
100
AcDbLine
 10
1040.0
 20
1099.9999999999997726
 30
0.0
 11
759.9999999999998863
 21
1100.0
 31
0.0
  0
LINE
  5
1CE
100
AcDbEntity
  8
0
 62
256
370
-1
 48
1.0
  6
ByLayer
100
AcDbLine
 10
1200.0000000000004547
 20
1099.9999999999997726
 30
0.0
 11
1120.0
 21
1099.9999999999997726
 31
0.0
  0
LINE
  5
1CF
100
AcDbEntity
  8
0
 62
256
370
-1
 48
1.0
  6
ByLayer
100
AcDbLine
 10
680.0000000000005684
 20
1100.0000000000002274
 30
0.0
 11
600.0000000000003411
 21
1100.0
 31
0.0
  0
LINE
  5
1D0
100
AcDbEntity
  8
0
 62
256
370
-1
 48
1.0
  6
ByLayer
100
AcDbLine
 10
2040.0000000000002274
 20
1635.2834957055051746
 30
0.0
 11
1959.9999999999997726
 21
1635.2834957055047198
 31
0.0
  0
LINE
  5
1D1
100
AcDbEntity
  8
0
 62
256
370
-1
 48
1.0
  6
ByLayer
100
AcDbLine
 10
1520.0000000000004547
 20
1635.2834957055042651
 30
0.0
 11
1440.0000000000002274
 21
1635.2834957055044924
 31
0.0
  0
LINE
  5
1D2
100
AcDbEntity
  8
0
 62
256
370
-1
 48
1.0
  6
ByLayer
100
AcDbLine
 10
1879.9999999999997726
 20
1635.2834957055049472
 30
0.0
 11
1599.9999999999997726
 21
1635.2834957055044924
 31
0.0
  0
LINE
  5
1D3
100
AcDbEntity
  8
0
 62
256
370
-1
 48
1.0
  6
ByLayer
100
AcDbLine
 10
1440.0
 20
1105.4834957055043105
 30
0.0
 11
1440.0
 21
1149.9934907702333931
 31
0.0
  0
LINE
  5
1D4
100
AcDbEntity
  8
0
 62
256
370
-1
 48
1.0
  6
ByLayer
100
AcDbLine
 10
2040.0000000000002274
 20
1105.4834957055040832
 30
0.0
 11
2040.0000000000002274
 21
1149.9934907702327109
 31
0.0
  0
LINE
  5
1D5
100
AcDbEntity
  8
0
 62
256
370
-1
 48
1.0
  6
ByLayer
100
AcDbLine
 10
600.0000000000003411
 20
1100.0
 30
0.0
 11
600.0000000000003411
 21
1144.5099950647290825
 31
0.0
  0
LINE
  5
1D6
100
AcDbEntity
  8
0
 62
256
370
-1
 48
1.0
  6
ByLayer
100
AcDbLine
 10
1200.0000000000004547
 20
1099.9999999999997726
 30
0.0
 11
1200.0000000000004547
 21
1144.5099950647284004
 31
0.0
  0
LINE
  5
1D7
100
AcDbEntity
  8
0
 62
256
370
-1
 48
1.0
  6
ByLayer
100
AcDbLine
 10
1440.0
 20
1229.9934907702333931
 30
0.0
 11
1440.0000000000002274
 21
1509.9934907702333931
 31
0.0
  0
LINE
  5
1D8
100
AcDbEntity
  8
0
 62
256
370
-1
 48
1.0
  6
ByLayer
100
AcDbLine
 10
2040.0000000000002274
 20
1229.9934907702327109
 30
0.0
 11
2040.0000000000002274
 21
1509.9934907702329383
 31
0.0
  0
LINE
  5
1D9
100
AcDbEntity
  8
0
 62
256
370
-1
 48
1.0
  6
ByLayer
100
AcDbLine
 10
600.0000000000003411
 20
1224.5099950647290825
 30
0.0
 11
600.0000000000005684
 21
1504.5099950647290825
 31
0.0
  0
LINE
  5
1DA
100
AcDbEntity
  8
0
 62
256
370
-1
 48
1.0
  6
ByLayer
100
AcDbLine
 10
1200.0000000000004547
 20
1224.5099950647284004
 30
0.0
 11
1200.0000000000004547
 21
1504.5099950647286278
 31
0.0
  0
LINE
  5
1DB
100
AcDbEntity
  8
0
 62
256
370
-1
 48
1.0
  6
ByLayer
100
AcDbLine
 10
1440.0000000000002274
 20
1589.9934907702333931
 30
0.0
 11
1440.0000000000002274
 21
1635.2834957055044924
 31
0.0
  0
LINE
  5
1DC
100
AcDbEntity
  8
0
 62
256
370
-1
 48
1.0
  6
ByLayer
100
AcDbLine
 10
2040.0000000000002274
 20
1589.9934907702327109
 30
0.0
 11
2040.0000000000002274
 21
1635.2834957055035829
 31
0.0
  0
LINE
  5
1DD
100
AcDbEntity
  8
0
 62
256
370
-1
 48
1.0
  6
ByLayer
100
AcDbLine
 10
600.0000000000005684
 20
1584.5099950647290825
 30
0.0
 11
600.0000000000005684
 21
1629.8000000000001819
 31
0.0
  0
LINE
  5
1DE
100
AcDbEntity
  8
0
 62
256
370
-1
 48
1.0
  6
ByLayer
100
AcDbLine
 10
1200.0000000000004547
 20
1584.5099950647284004
 30
0.0
 11
1200.0000000000004547
 21
1629.7999999999992724
 31
0.0
  0
LINE
  5
1DF
100
AcDbEntity
  8
0
 62
256
370
-1
 48
1.0
  6
ByLayer
100
AcDbLine
 10
600.0000000000005684
 20
1629.8000000000001819
 30
0.0
 11
1200.0000000000004547
 21
1629.7999999999992724
 31
0.0
  0
ENDSEC
  0
SECTION
  2
OBJECTS
  0
DICTIONARY
  5
C
100
AcDbDictionary
280
0
281
1
  3
ACAD_GROUP
350
D
  3
ACAD_LAYOUT
350
1A
  3
ACAD_MLINESTYLE
350
17
  3
ACAD_PLOTSETTINGS
350
19
  3
ACAD_PLOTSTYLENAME
350
E
  3
AcDbVariableDictionary
350
1E0
  3
QCAD_OBJECTS
350
1E1
  0
DICTIONARY
  5
D
100
AcDbDictionary
280
0
281
1
  0
ACDBDICTIONARYWDFLT
  5
E
100
AcDbDictionary
281
1
  3
Normal
350
F
100
AcDbDictionaryWithDefault
340
F
  0
ACDBPLACEHOLDER
  5
F
  0
DICTIONARY
  5
17
100
AcDbDictionary
280
0
281
1
  3
Standard
350
18
  0
MLINESTYLE
  5
18
100
AcDbMlineStyle
  2
STANDARD
 70
0
  3

 62
256
 51
90.0
 52
90.0
 71
2
 49
0.5
 62
256
  6
BYLAYER
 49
-0.5
 62
256
  6
BYLAYER
  0
DICTIONARY
  5
19
100
AcDbDictionary
280
0
281
1
  0
DICTIONARY
  5
1A
100
AcDbDictionary
281
1
  3
Layout1
350
1E
  3
Layout2
350
26
  3
Model
350
22
  0
LAYOUT
  5
1E
100
AcDbPlotSettings
  1

  2
none_device
  4

  6

 40
0.0
 41
0.0
 42
0.0
 43
0.0
 44
0.0
 45
0.0
 46
0.0
 47
0.0
 48
0.0
 49
0.0
140
0.0
141
0.0
142
1.0
143
1.0
 70
688
 72
0
 73
0
 74
5
  7

 75
16
147
1.0
148
0.0
149
0.0
100
AcDbLayout
  1
Layout1
 70
1
 71
1
 10
0.0
 20
0.0
 11
420.0
 21
297.0
 12
0.0
 22
0.0
 32
0.0
 14
100000000000000000000.0
 24
100000000000000000000.0
 34
100000000000000000000.0
 15
-100000000000000000000.0
 25
-100000000000000000000.0
 35
-100000000000000000000.0
146
0.0
 13
0.0
 23
0.0
 33
0.0
 16
1.0
 26
0.0
 36
0.0
 17
0.0
 27
1.0
 37
0.0
 76
0
330
1B
  0
LAYOUT
  5
22
100
AcDbPlotSettings
  1

  2
none_device
  4

  6

 40
0.0
 41
0.0
 42
0.0
 43
0.0
 44
0.0
 45
0.0
 46
0.0
 47
0.0
 48
0.0
 49
0.0
140
0.0
141
0.0
142
1.0
143
1.0
 70
1712
 72
0
 73
0
 74
0
  7

 75
0
147
1.0
148
0.0
149
0.0
100
AcDbLayout
  1
Model
 70
1
 71
0
 10
0.0
 20
0.0
 11
12.0
 21
9.0
 12
0.0
 22
0.0
 32
0.0
 14
0.0
 24
0.0
 34
0.0
 15
0.0
 25
0.0
 35
0.0
146
0.0
 13
0.0
 23
0.0
 33
0.0
 16
1.0
 26
0.0
 36
0.0
 17
0.0
 27
1.0
 37
0.0
 76
0
330
1F
  0
LAYOUT
  5
26
100
AcDbPlotSettings
  1

  2
none_device
  4

  6

 40
0.0
 41
0.0
 42
0.0
 43
0.0
 44
0.0
 45
0.0
 46
0.0
 47
0.0
 48
0.0
 49
0.0
140
0.0
141
0.0
142
1.0
143
1.0
 70
688
 72
0
 73
0
 74
5
  7

 75
16
147
1.0
148
0.0
149
0.0
100
AcDbLayout
  1
Layout2
 70
1
 71
2
 10
0.0
 20
0.0
 11
12.0
 21
9.0
 12
0.0
 22
0.0
 32
0.0
 14
0.0
 24
0.0
 34
0.0
 15
0.0
 25
0.0
 35
0.0
146
0.0
 13
0.0
 23
0.0
 33
0.0
 16
1.0
 26
0.0
 36
0.0
 17
0.0
 27
1.0
 37
0.0
 76
0
330
23
  0
DICTIONARY
  5
1E0
100
AcDbDictionary
281
1
  3
DIMASSOC
350
1E3
  3
HIDETEXT
350
1E2
  0
DICTIONARYVAR
  5
1E2
100
DictionaryVariables
280
0
  1
2
  0
DICTIONARYVAR
  5
1E3
100
DictionaryVariables
280
0
  1
1
  0
DICTIONARY
  5
1E1
100
AcDbDictionary
281
1
  3
ColorSettings/BackgroundColor
350
1E4
  3
ColorSettings/ColorMode
350
1E5
  3
Grid/DisplayGrid00
350
1E6
  3
Grid/DisplayGrid01
350
1E7
  3
Grid/DisplayGrid02
350
1E8
  3
Grid/DisplayGrid03
350
1E9
  3
Grid/GridSpacingX00
350
1EA
  3
Grid/GridSpacingX01
350
1EB
  3
Grid/GridSpacingX02
350
1EC
  3
Grid/GridSpacingX03
350
1ED
  3
Grid/GridSpacingY00
350
1EE
  3
Grid/GridSpacingY01
350
1EF
  3
Grid/GridSpacingY02
350
1F0
  3
Grid/GridSpacingY03
350
1F1
  3
Grid/IsometricGrid00
350
1F2
  3
Grid/IsometricGrid01
350
1F3
  3
Grid/IsometricGrid02
350
1F4
  3
Grid/IsometricGrid03
350
1F5
  3
Grid/IsometricProjection00
350
1F6
  3
Grid/IsometricProjection01
350
1F7
  3
Grid/IsometricProjection02
350
1F8
  3
Grid/IsometricProjection03
350
1F9
  3
Grid/MetaGridSpacingX00
350
1FA
  3
Grid/MetaGridSpacingX01
350
1FB
  3
Grid/MetaGridSpacingX02
350
1FC
  3
Grid/MetaGridSpacingX03
350
1FD
  3
Grid/MetaGridSpacingY00
350
1FE
  3
Grid/MetaGridSpacingY01
350
1FF
  3
Grid/MetaGridSpacingY02
350
200
  3
Grid/MetaGridSpacingY03
350
201
  3
MultiPageSettings/Columns
350
202
  3
MultiPageSettings/GlueMarginsBottom
350
203
  3
MultiPageSettings/GlueMarginsLeft
350
204
  3
MultiPageSettings/GlueMarginsRight
350
205
  3
MultiPageSettings/GlueMarginsTop
350
206
  3
MultiPageSettings/PrintCropMarks
350
207
  3
MultiPageSettings/Rows
350
208
  3
PageSettings/OffsetX
350
209
  3
PageSettings/OffsetY
350
20A
  3
PageSettings/PageOrientation
350
20B
  3
PageSettings/PaperHeight
350
20C
  3
PageSettings/PaperWidth
350
20D
  3
PageSettings/Scale
350
20E
  3
PageSettings/ShowPaperBorders
350
20F
  3
QCADVersion
350
210
  3
UnitSettings/PaperUnit
350
211
  3
ViewportCenter
350
212
  3
ViewportHeight
350
213
  3
ViewportWidth
350
214
  0
XRECORD
  5
1E4
330
1E1
100
AcDbXrecord
280
1
1000
#ffffff
  0
XRECORD
  5
1E5
330
1E1
100
AcDbXrecord
280
1
1000
FullColor
  0
XRECORD
  5
1E6
330
1E1
100
AcDbXrecord
280
1
290
1
  0
XRECORD
  5
1E7
330
1E1
100
AcDbXrecord
280
1
290
1
  0
XRECORD
  5
1E8
330
1E1
100
AcDbXrecord
280
1
290
1
  0
XRECORD
  5
1E9
330
1E1
100
AcDbXrecord
280
1
290
1
  0
XRECORD
  5
1EA
330
1E1
100
AcDbXrecord
280
1
1000
auto
  0
XRECORD
  5
1EB
330
1E1
100
AcDbXrecord
280
1
1000
auto
  0
XRECORD
  5
1EC
330
1E1
100
AcDbXrecord
280
1
1000
auto
  0
XRECORD
  5
1ED
330
1E1
100
AcDbXrecord
280
1
1000
auto
  0
XRECORD
  5
1EE
330
1E1
100
AcDbXrecord
280
1
1000
auto
  0
XRECORD
  5
1EF
330
1E1
100
AcDbXrecord
280
1
1000
auto
  0
XRECORD
  5
1F0
330
1E1
100
AcDbXrecord
280
1
1000
auto
  0
XRECORD
  5
1F1
330
1E1
100
AcDbXrecord
280
1
1000
auto
  0
XRECORD
  5
1F2
330
1E1
100
AcDbXrecord
280
1
290
0
  0
XRECORD
  5
1F3
330
1E1
100
AcDbXrecord
280
1
290
0
  0
XRECORD
  5
1F4
330
1E1
100
AcDbXrecord
280
1
290
0
  0
XRECORD
  5
1F5
330
1E1
100
AcDbXrecord
280
1
290
0
  0
XRECORD
  5
1F6
330
1E1
100
AcDbXrecord
280
1
 90
0
  0
XRECORD
  5
1F7
330
1E1
100
AcDbXrecord
280
1
 90
0
  0
XRECORD
  5
1F8
330
1E1
100
AcDbXrecord
280
1
 90
0
  0
XRECORD
  5
1F9
330
1E1
100
AcDbXrecord
280
1
 90
0
  0
XRECORD
  5
1FA
330
1E1
100
AcDbXrecord
280
1
1000
auto
  0
XRECORD
  5
1FB
330
1E1
100
AcDbXrecord
280
1
1000
auto
  0
XRECORD
  5
1FC
330
1E1
100
AcDbXrecord
280
1
1000
auto
  0
XRECORD
  5
1FD
330
1E1
100
AcDbXrecord
280
1
1000
auto
  0
XRECORD
  5
1FE
330
1E1
100
AcDbXrecord
280
1
1000
auto
  0
XRECORD
  5
1FF
330
1E1
100
AcDbXrecord
280
1
1000
auto
  0
XRECORD
  5
200
330
1E1
100
AcDbXrecord
280
1
1000
auto
  0
XRECORD
  5
201
330
1E1
100
AcDbXrecord
280
1
1000
auto
  0
XRECORD
  5
202
330
1E1
100
AcDbXrecord
280
1
 90
1
  0
XRECORD
  5
203
330
1E1
100
AcDbXrecord
280
1
 40
10.0
  0
XRECORD
  5
204
330
1E1
100
AcDbXrecord
280
1
 40
10.0
  0
XRECORD
  5
205
330
1E1
100
AcDbXrecord
280
1
 40
10.0
  0
XRECORD
  5
206
330
1E1
100
AcDbXrecord
280
1
 40
10.0
  0
XRECORD
  5
207
330
1E1
100
AcDbXrecord
280
1
290
0
  0
XRECORD
  5
208
330
1E1
100
AcDbXrecord
280
1
 90
1
  0
XRECORD
  5
209
330
1E1
100
AcDbXrecord
280
1
 40
0.0
  0
XRECORD
  5
20A
330
1E1
100
AcDbXrecord
280
1
 40
0.0
  0
XRECORD
  5
20B
330
1E1
100
AcDbXrecord
280
1
1000
Portrait
  0
XRECORD
  5
20C
330
1E1
100
AcDbXrecord
280
1
 40
297.0
  0
XRECORD
  5
20D
330
1E1
100
AcDbXrecord
280
1
 40
210.0
  0
XRECORD
  5
20E
330
1E1
100
AcDbXrecord
280
1
1000
1:1
  0
XRECORD
  5
20F
330
1E1
100
AcDbXrecord
280
1
290
1
  0
XRECORD
  5
210
330
1E1
100
AcDbXrecord
280
1
1000
3.16.4
  0
XRECORD
  5
211
330
1E1
100
AcDbXrecord
280
1
 90
4
  0
XRECORD
  5
213
330
1E1
100
AcDbXrecord
280
1
 40
2600.1010966292733428
  0
XRECORD
  5
214
330
1E1
100
AcDbXrecord
280
1
 40
4898.902924550433454
  0
ENDSEC
  0
EOF
